<mxfile host="app.diagrams.net" agent="Mozilla/5.0 (Windows NT 10.0; Win64; x64) AppleWebKit/537.36 (KHTML, like Gecko) Chrome/128.0.0.0 Safari/537.36" version="24.7.13">
  <diagram name="Page-1" id="zdLS6XzUSG3x8lp1yBCd">
    <mxGraphModel dx="819" dy="481" grid="1" gridSize="10" guides="1" tooltips="1" connect="1" arrows="1" fold="1" page="1" pageScale="1" pageWidth="827" pageHeight="1169" background="none" math="0" shadow="0">
      <root>
        <mxCell id="0" />
        <mxCell id="1" parent="0" />
        <mxCell id="ZnwNd1amS8vzW6LrnCgQ-21" value="" style="ellipse;whiteSpace=wrap;html=1;aspect=fixed;strokeWidth=2;fontSize=15;" parent="1" vertex="1">
          <mxGeometry x="270" y="380" width="60" height="60" as="geometry" />
        </mxCell>
        <mxCell id="_PjYLiZ7u1xAUvMMXe8_-4" value="&lt;font face=&quot;Helvetica&quot; style=&quot;font-size: 24px;&quot;&gt;3&lt;/font&gt;" style="ellipse;whiteSpace=wrap;html=1;aspect=fixed;strokeWidth=2;" parent="1" vertex="1">
          <mxGeometry x="400" y="300" width="40" height="40" as="geometry" />
        </mxCell>
        <mxCell id="ZnwNd1amS8vzW6LrnCgQ-4" value="&lt;span style=&quot;font-size: 24px;&quot;&gt;&lt;span style=&quot;font-style: italic;&quot;&gt;B&lt;/span&gt;&lt;span style=&quot;&quot;&gt;&lt;sub style=&quot;&quot;&gt;0&lt;/sub&gt;&lt;/span&gt;&lt;/span&gt;" style="text;html=1;align=center;verticalAlign=middle;resizable=0;points=[];autosize=1;strokeColor=none;fillColor=none;strokeWidth=1;fontFamily=Times New Roman;fontStyle=0" parent="1" vertex="1">
          <mxGeometry x="275" y="385" width="50" height="50" as="geometry" />
        </mxCell>
        <mxCell id="ZnwNd1amS8vzW6LrnCgQ-15" value="&lt;var style=&quot;font-size: 24px;&quot; class=&quot;vector&quot;&gt;&lt;span style=&quot;font-size: 24px;&quot;&gt;&lt;font style=&quot;font-size: 24px;&quot;&gt;⃗&lt;/font&gt;&lt;/span&gt;&lt;/var&gt;" style="text;html=1;align=center;verticalAlign=middle;resizable=0;points=[];autosize=1;strokeColor=none;fillColor=none;fontFamily=Times New Roman;fontSize=24;" parent="1" vertex="1">
          <mxGeometry x="290" y="380" width="20" height="40" as="geometry" />
        </mxCell>
        <mxCell id="ZnwNd1amS8vzW6LrnCgQ-23" value="" style="ellipse;whiteSpace=wrap;html=1;aspect=fixed;strokeWidth=2;fontSize=15;" parent="1" vertex="1">
          <mxGeometry x="390" y="380" width="60" height="60" as="geometry" />
        </mxCell>
        <mxCell id="ZnwNd1amS8vzW6LrnCgQ-24" value="&lt;span style=&quot;font-size: 24px;&quot;&gt;&lt;span style=&quot;font-style: italic;&quot;&gt;B&lt;/span&gt;&lt;span style=&quot;&quot;&gt;&lt;sub style=&quot;&quot;&gt;1&lt;/sub&gt;&lt;/span&gt;&lt;/span&gt;" style="text;html=1;align=center;verticalAlign=middle;resizable=0;points=[];autosize=1;strokeColor=none;fillColor=none;strokeWidth=1;fontFamily=Times New Roman;fontStyle=0" parent="1" vertex="1">
          <mxGeometry x="395" y="385" width="50" height="50" as="geometry" />
        </mxCell>
        <mxCell id="ZnwNd1amS8vzW6LrnCgQ-25" value="&lt;var style=&quot;font-size: 24px;&quot; class=&quot;vector&quot;&gt;&lt;span style=&quot;font-size: 24px;&quot;&gt;&lt;font style=&quot;font-size: 24px;&quot;&gt;⃗&lt;/font&gt;&lt;/span&gt;&lt;/var&gt;" style="text;html=1;align=center;verticalAlign=middle;resizable=0;points=[];autosize=1;strokeColor=none;fillColor=none;fontFamily=Times New Roman;fontSize=24;" parent="1" vertex="1">
          <mxGeometry x="410" y="380" width="20" height="40" as="geometry" />
        </mxCell>
        <mxCell id="ZnwNd1amS8vzW6LrnCgQ-26" value="" style="ellipse;whiteSpace=wrap;html=1;aspect=fixed;strokeWidth=2;fontSize=15;" parent="1" vertex="1">
          <mxGeometry x="510" y="380" width="60" height="60" as="geometry" />
        </mxCell>
        <mxCell id="ZnwNd1amS8vzW6LrnCgQ-27" value="&lt;span style=&quot;font-size: 24px;&quot;&gt;&lt;span style=&quot;font-style: italic;&quot;&gt;B&lt;/span&gt;&lt;span style=&quot;&quot;&gt;&lt;sub style=&quot;&quot;&gt;3&lt;/sub&gt;&lt;/span&gt;&lt;/span&gt;" style="text;html=1;align=center;verticalAlign=middle;resizable=0;points=[];autosize=1;strokeColor=none;fillColor=none;strokeWidth=1;fontFamily=Times New Roman;fontStyle=0" parent="1" vertex="1">
          <mxGeometry x="515" y="385" width="50" height="50" as="geometry" />
        </mxCell>
        <mxCell id="ZnwNd1amS8vzW6LrnCgQ-28" value="&lt;var style=&quot;font-size: 24px;&quot; class=&quot;vector&quot;&gt;&lt;span style=&quot;font-size: 24px;&quot;&gt;&lt;font style=&quot;font-size: 24px;&quot;&gt;⃗&lt;/font&gt;&lt;/span&gt;&lt;/var&gt;" style="text;html=1;align=center;verticalAlign=middle;resizable=0;points=[];autosize=1;strokeColor=none;fillColor=none;fontFamily=Times New Roman;fontSize=24;" parent="1" vertex="1">
          <mxGeometry x="530" y="380" width="20" height="40" as="geometry" />
        </mxCell>
        <mxCell id="ZnwNd1amS8vzW6LrnCgQ-29" value="" style="ellipse;whiteSpace=wrap;html=1;aspect=fixed;strokeWidth=2;fontSize=15;" parent="1" vertex="1">
          <mxGeometry x="390" y="200" width="60" height="60" as="geometry" />
        </mxCell>
        <mxCell id="ZnwNd1amS8vzW6LrnCgQ-30" value="&lt;span style=&quot;font-size: 24px;&quot;&gt;&lt;span style=&quot;font-style: italic;&quot;&gt;B&lt;/span&gt;&lt;span style=&quot;&quot;&gt;&lt;sub style=&quot;&quot;&gt;4&lt;/sub&gt;&lt;/span&gt;&lt;/span&gt;" style="text;html=1;align=center;verticalAlign=middle;resizable=0;points=[];autosize=1;strokeColor=none;fillColor=none;strokeWidth=1;fontFamily=Times New Roman;fontStyle=0" parent="1" vertex="1">
          <mxGeometry x="395" y="205" width="50" height="50" as="geometry" />
        </mxCell>
        <mxCell id="ZnwNd1amS8vzW6LrnCgQ-31" value="&lt;var style=&quot;font-size: 24px;&quot; class=&quot;vector&quot;&gt;&lt;span style=&quot;font-size: 24px;&quot;&gt;&lt;font style=&quot;font-size: 24px;&quot;&gt;⃗&lt;/font&gt;&lt;/span&gt;&lt;/var&gt;" style="text;html=1;align=center;verticalAlign=middle;resizable=0;points=[];autosize=1;strokeColor=none;fillColor=none;fontFamily=Times New Roman;fontSize=24;" parent="1" vertex="1">
          <mxGeometry x="410" y="200" width="20" height="40" as="geometry" />
        </mxCell>
        <mxCell id="ZnwNd1amS8vzW6LrnCgQ-35" value="&lt;font face=&quot;Helvetica&quot; style=&quot;font-size: 24px;&quot;&gt;6&lt;/font&gt;" style="ellipse;whiteSpace=wrap;html=1;aspect=fixed;strokeWidth=2;" parent="1" vertex="1">
          <mxGeometry x="520" y="480" width="40" height="40" as="geometry" />
        </mxCell>
        <mxCell id="ZnwNd1amS8vzW6LrnCgQ-36" value="&lt;font face=&quot;Helvetica&quot; style=&quot;font-size: 24px;&quot;&gt;1&lt;/font&gt;" style="ellipse;whiteSpace=wrap;html=1;aspect=fixed;strokeWidth=2;" parent="1" vertex="1">
          <mxGeometry x="400" y="120" width="40" height="40" as="geometry" />
        </mxCell>
        <mxCell id="ZnwNd1amS8vzW6LrnCgQ-41" value="" style="ellipse;whiteSpace=wrap;html=1;aspect=fixed;strokeWidth=2;fontSize=15;" parent="1" vertex="1">
          <mxGeometry x="510" y="560" width="60" height="60" as="geometry" />
        </mxCell>
        <mxCell id="ZnwNd1amS8vzW6LrnCgQ-42" value="&lt;span style=&quot;font-size: 24px;&quot;&gt;&lt;span style=&quot;font-style: italic;&quot;&gt;B&lt;/span&gt;&lt;span style=&quot;&quot;&gt;&lt;sub style=&quot;&quot;&gt;2&lt;/sub&gt;&lt;/span&gt;&lt;/span&gt;" style="text;html=1;align=center;verticalAlign=middle;resizable=0;points=[];autosize=1;strokeColor=none;fillColor=none;strokeWidth=1;fontFamily=Times New Roman;fontStyle=0" parent="1" vertex="1">
          <mxGeometry x="515" y="565" width="50" height="50" as="geometry" />
        </mxCell>
        <mxCell id="ZnwNd1amS8vzW6LrnCgQ-43" value="&lt;var style=&quot;font-size: 24px;&quot; class=&quot;vector&quot;&gt;&lt;span style=&quot;font-size: 24px;&quot;&gt;&lt;font style=&quot;font-size: 24px;&quot;&gt;⃗&lt;/font&gt;&lt;/span&gt;&lt;/var&gt;" style="text;html=1;align=center;verticalAlign=middle;resizable=0;points=[];autosize=1;strokeColor=none;fillColor=none;fontFamily=Times New Roman;fontSize=24;" parent="1" vertex="1">
          <mxGeometry x="530" y="560" width="20" height="40" as="geometry" />
        </mxCell>
        <mxCell id="ZnwNd1amS8vzW6LrnCgQ-44" value="" style="ellipse;whiteSpace=wrap;html=1;aspect=fixed;strokeWidth=2;fontSize=15;" parent="1" vertex="1">
          <mxGeometry x="270" y="200" width="60" height="60" as="geometry" />
        </mxCell>
        <mxCell id="ZnwNd1amS8vzW6LrnCgQ-45" value="&lt;span style=&quot;font-size: 24px;&quot;&gt;&lt;span style=&quot;font-style: italic;&quot;&gt;B&lt;/span&gt;&lt;span style=&quot;&quot;&gt;&lt;sub style=&quot;&quot;&gt;5&lt;/sub&gt;&lt;/span&gt;&lt;/span&gt;" style="text;html=1;align=center;verticalAlign=middle;resizable=0;points=[];autosize=1;strokeColor=none;fillColor=none;strokeWidth=1;fontFamily=Times New Roman;fontStyle=0" parent="1" vertex="1">
          <mxGeometry x="275" y="205" width="50" height="50" as="geometry" />
        </mxCell>
        <mxCell id="ZnwNd1amS8vzW6LrnCgQ-46" value="&lt;var style=&quot;font-size: 24px;&quot; class=&quot;vector&quot;&gt;&lt;span style=&quot;font-size: 24px;&quot;&gt;&lt;font style=&quot;font-size: 24px;&quot;&gt;⃗&lt;/font&gt;&lt;/span&gt;&lt;/var&gt;" style="text;html=1;align=center;verticalAlign=middle;resizable=0;points=[];autosize=1;strokeColor=none;fillColor=none;fontFamily=Times New Roman;fontSize=24;" parent="1" vertex="1">
          <mxGeometry x="290" y="200" width="20" height="40" as="geometry" />
        </mxCell>
        <mxCell id="ZnwNd1amS8vzW6LrnCgQ-47" value="" style="ellipse;whiteSpace=wrap;html=1;aspect=fixed;strokeWidth=2;fontSize=15;" parent="1" vertex="1">
          <mxGeometry x="390" y="20" width="60" height="60" as="geometry" />
        </mxCell>
        <mxCell id="ZnwNd1amS8vzW6LrnCgQ-48" value="&lt;span style=&quot;font-size: 24px;&quot;&gt;&lt;span style=&quot;font-style: italic;&quot;&gt;B&lt;/span&gt;&lt;span style=&quot;&quot;&gt;&lt;sub style=&quot;&quot;&gt;6&lt;/sub&gt;&lt;/span&gt;&lt;/span&gt;" style="text;html=1;align=center;verticalAlign=middle;resizable=0;points=[];autosize=1;strokeColor=none;fillColor=none;strokeWidth=1;fontFamily=Times New Roman;fontStyle=0" parent="1" vertex="1">
          <mxGeometry x="395" y="25" width="50" height="50" as="geometry" />
        </mxCell>
        <mxCell id="ZnwNd1amS8vzW6LrnCgQ-49" value="&lt;var style=&quot;font-size: 24px;&quot; class=&quot;vector&quot;&gt;&lt;span style=&quot;font-size: 24px;&quot;&gt;&lt;font style=&quot;font-size: 24px;&quot;&gt;⃗&lt;/font&gt;&lt;/span&gt;&lt;/var&gt;" style="text;html=1;align=center;verticalAlign=middle;resizable=0;points=[];autosize=1;strokeColor=none;fillColor=none;fontFamily=Times New Roman;fontSize=24;" parent="1" vertex="1">
          <mxGeometry x="410" y="20" width="20" height="40" as="geometry" />
        </mxCell>
        <mxCell id="ZnwNd1amS8vzW6LrnCgQ-50" value="" style="endArrow=none;html=1;rounded=0;entryX=0.5;entryY=0;entryDx=0;entryDy=0;exitX=0.5;exitY=1;exitDx=0;exitDy=0;fontSize=11;strokeWidth=2;" parent="1" source="ZnwNd1amS8vzW6LrnCgQ-35" target="ZnwNd1amS8vzW6LrnCgQ-41" edge="1">
          <mxGeometry width="50" height="50" relative="1" as="geometry">
            <mxPoint x="200" y="590" as="sourcePoint" />
            <mxPoint x="200" y="630" as="targetPoint" />
          </mxGeometry>
        </mxCell>
        <mxCell id="ZnwNd1amS8vzW6LrnCgQ-53" value="&lt;font face=&quot;Helvetica&quot; style=&quot;font-size: 24px;&quot;&gt;0&lt;/font&gt;" style="ellipse;whiteSpace=wrap;html=1;aspect=fixed;strokeWidth=2;" parent="1" vertex="1">
          <mxGeometry x="520" y="120" width="40" height="40" as="geometry" />
        </mxCell>
        <mxCell id="ZnwNd1amS8vzW6LrnCgQ-54" value="" style="ellipse;whiteSpace=wrap;html=1;aspect=fixed;strokeWidth=2;fontSize=15;" parent="1" vertex="1">
          <mxGeometry x="510" y="200" width="60" height="60" as="geometry" />
        </mxCell>
        <mxCell id="ZnwNd1amS8vzW6LrnCgQ-55" value="&lt;span style=&quot;font-size: 24px;&quot;&gt;&lt;span style=&quot;font-style: italic;&quot;&gt;B&lt;/span&gt;&lt;span style=&quot;&quot;&gt;&lt;sub style=&quot;&quot;&gt;7&lt;/sub&gt;&lt;/span&gt;&lt;/span&gt;" style="text;html=1;align=center;verticalAlign=middle;resizable=0;points=[];autosize=1;strokeColor=none;fillColor=none;strokeWidth=1;fontFamily=Times New Roman;fontStyle=0" parent="1" vertex="1">
          <mxGeometry x="515" y="205" width="50" height="50" as="geometry" />
        </mxCell>
        <mxCell id="ZnwNd1amS8vzW6LrnCgQ-56" value="&lt;var style=&quot;font-size: 24px;&quot; class=&quot;vector&quot;&gt;&lt;span style=&quot;font-size: 24px;&quot;&gt;&lt;font style=&quot;font-size: 24px;&quot;&gt;⃗&lt;/font&gt;&lt;/span&gt;&lt;/var&gt;" style="text;html=1;align=center;verticalAlign=middle;resizable=0;points=[];autosize=1;strokeColor=none;fillColor=none;fontFamily=Times New Roman;fontSize=24;" parent="1" vertex="1">
          <mxGeometry x="530" y="200" width="20" height="40" as="geometry" />
        </mxCell>
        <mxCell id="ZnwNd1amS8vzW6LrnCgQ-58" value="" style="endArrow=none;html=1;rounded=0;entryX=0.5;entryY=1;entryDx=0;entryDy=0;exitX=0.5;exitY=0;exitDx=0;exitDy=0;fontSize=11;strokeWidth=2;" parent="1" source="ZnwNd1amS8vzW6LrnCgQ-54" target="ZnwNd1amS8vzW6LrnCgQ-53" edge="1">
          <mxGeometry width="50" height="50" relative="1" as="geometry">
            <mxPoint x="630" y="490" as="sourcePoint" />
            <mxPoint x="630" y="450" as="targetPoint" />
          </mxGeometry>
        </mxCell>
        <mxCell id="hOlZU20SFHRlqGnEyY6V-10" value="&lt;font size=&quot;1&quot; face=&quot;Times New Roman&quot;&gt;&lt;span style=&quot;font-size: 20px;&quot;&gt;&lt;b&gt;0&lt;/b&gt;&lt;/span&gt;&lt;/font&gt;" style="text;html=1;align=center;verticalAlign=middle;resizable=0;points=[];autosize=1;strokeColor=none;fillColor=none;" parent="1" vertex="1">
          <mxGeometry x="480" y="70" width="30" height="40" as="geometry" />
        </mxCell>
        <mxCell id="Zt5FTZZe3lsU1F_ZuzoK-1" value="" style="endArrow=none;html=1;rounded=0;entryX=1;entryY=1;entryDx=0;entryDy=0;exitX=0;exitY=0;exitDx=0;exitDy=0;fontSize=11;strokeWidth=2;" parent="1" source="ZnwNd1amS8vzW6LrnCgQ-53" target="ZnwNd1amS8vzW6LrnCgQ-47" edge="1">
          <mxGeometry width="50" height="50" relative="1" as="geometry">
            <mxPoint x="630" y="570" as="sourcePoint" />
            <mxPoint x="550" y="170" as="targetPoint" />
          </mxGeometry>
        </mxCell>
        <mxCell id="Zt5FTZZe3lsU1F_ZuzoK-3" value="" style="endArrow=none;html=1;rounded=0;entryX=0.5;entryY=1;entryDx=0;entryDy=0;fontSize=11;strokeWidth=2;exitX=0.5;exitY=0;exitDx=0;exitDy=0;" parent="1" source="ZnwNd1amS8vzW6LrnCgQ-29" target="ZnwNd1amS8vzW6LrnCgQ-36" edge="1">
          <mxGeometry width="50" height="50" relative="1" as="geometry">
            <mxPoint x="420" y="200" as="sourcePoint" />
            <mxPoint x="430" y="90" as="targetPoint" />
          </mxGeometry>
        </mxCell>
        <mxCell id="Zt5FTZZe3lsU1F_ZuzoK-5" value="" style="endArrow=none;html=1;rounded=0;entryX=1;entryY=0;entryDx=0;entryDy=0;fontSize=11;strokeWidth=2;exitX=0;exitY=1;exitDx=0;exitDy=0;" parent="1" source="ZnwNd1amS8vzW6LrnCgQ-36" target="ZnwNd1amS8vzW6LrnCgQ-44" edge="1">
          <mxGeometry width="50" height="50" relative="1" as="geometry">
            <mxPoint x="430" y="210" as="sourcePoint" />
            <mxPoint x="430" y="170" as="targetPoint" />
          </mxGeometry>
        </mxCell>
        <mxCell id="Zt5FTZZe3lsU1F_ZuzoK-7" value="" style="endArrow=none;html=1;rounded=0;entryX=0.5;entryY=0;entryDx=0;entryDy=0;fontSize=11;strokeWidth=2;exitX=0.5;exitY=1;exitDx=0;exitDy=0;" parent="1" source="ZnwNd1amS8vzW6LrnCgQ-29" target="_PjYLiZ7u1xAUvMMXe8_-4" edge="1">
          <mxGeometry width="50" height="50" relative="1" as="geometry">
            <mxPoint x="416" y="164" as="sourcePoint" />
            <mxPoint x="331" y="219" as="targetPoint" />
          </mxGeometry>
        </mxCell>
        <mxCell id="Zt5FTZZe3lsU1F_ZuzoK-8" value="" style="endArrow=none;html=1;rounded=0;entryX=1;entryY=0;entryDx=0;entryDy=0;fontSize=11;strokeWidth=2;exitX=0;exitY=1;exitDx=0;exitDy=0;" parent="1" source="_PjYLiZ7u1xAUvMMXe8_-4" target="ZnwNd1amS8vzW6LrnCgQ-21" edge="1">
          <mxGeometry width="50" height="50" relative="1" as="geometry">
            <mxPoint x="430" y="270" as="sourcePoint" />
            <mxPoint x="430" y="310" as="targetPoint" />
          </mxGeometry>
        </mxCell>
        <mxCell id="Zt5FTZZe3lsU1F_ZuzoK-9" value="" style="endArrow=none;html=1;rounded=0;entryX=0.5;entryY=0;entryDx=0;entryDy=0;fontSize=11;strokeWidth=2;exitX=0.5;exitY=1;exitDx=0;exitDy=0;" parent="1" source="_PjYLiZ7u1xAUvMMXe8_-4" target="ZnwNd1amS8vzW6LrnCgQ-23" edge="1">
          <mxGeometry width="50" height="50" relative="1" as="geometry">
            <mxPoint x="416" y="338" as="sourcePoint" />
            <mxPoint x="331" y="399" as="targetPoint" />
          </mxGeometry>
        </mxCell>
        <mxCell id="Zt5FTZZe3lsU1F_ZuzoK-10" value="" style="endArrow=none;html=1;rounded=0;entryX=0;entryY=0;entryDx=0;entryDy=0;fontSize=11;strokeWidth=2;exitX=1;exitY=1;exitDx=0;exitDy=0;" parent="1" source="_PjYLiZ7u1xAUvMMXe8_-4" target="ZnwNd1amS8vzW6LrnCgQ-26" edge="1">
          <mxGeometry width="50" height="50" relative="1" as="geometry">
            <mxPoint x="430" y="350" as="sourcePoint" />
            <mxPoint x="430" y="390" as="targetPoint" />
          </mxGeometry>
        </mxCell>
        <mxCell id="Zt5FTZZe3lsU1F_ZuzoK-12" value="&lt;font size=&quot;1&quot; face=&quot;Times New Roman&quot;&gt;&lt;span style=&quot;font-size: 20px;&quot;&gt;&lt;b&gt;0&lt;/b&gt;&lt;/span&gt;&lt;/font&gt;" style="text;html=1;align=center;verticalAlign=middle;resizable=0;points=[];autosize=1;strokeColor=none;fillColor=none;" parent="1" vertex="1">
          <mxGeometry x="540" y="160" width="30" height="40" as="geometry" />
        </mxCell>
        <mxCell id="Zt5FTZZe3lsU1F_ZuzoK-13" value="&lt;font size=&quot;1&quot; face=&quot;Times New Roman&quot;&gt;&lt;span style=&quot;font-size: 20px;&quot;&gt;&lt;b&gt;0&lt;/b&gt;&lt;/span&gt;&lt;/font&gt;" style="text;html=1;align=center;verticalAlign=middle;resizable=0;points=[];autosize=1;strokeColor=none;fillColor=none;" parent="1" vertex="1">
          <mxGeometry x="420" y="160" width="30" height="40" as="geometry" />
        </mxCell>
        <mxCell id="Zt5FTZZe3lsU1F_ZuzoK-14" value="&lt;font size=&quot;1&quot; face=&quot;Times New Roman&quot;&gt;&lt;span style=&quot;font-size: 20px;&quot;&gt;&lt;b&gt;0&lt;/b&gt;&lt;/span&gt;&lt;/font&gt;" style="text;html=1;align=center;verticalAlign=middle;resizable=0;points=[];autosize=1;strokeColor=none;fillColor=none;" parent="1" vertex="1">
          <mxGeometry x="340" y="150" width="30" height="40" as="geometry" />
        </mxCell>
        <mxCell id="Zt5FTZZe3lsU1F_ZuzoK-15" value="&lt;font size=&quot;1&quot; face=&quot;Times New Roman&quot;&gt;&lt;span style=&quot;font-size: 20px;&quot;&gt;&lt;b&gt;1&lt;/b&gt;&lt;/span&gt;&lt;/font&gt;" style="text;html=1;align=center;verticalAlign=middle;resizable=0;points=[];autosize=1;strokeColor=none;fillColor=none;" parent="1" vertex="1">
          <mxGeometry x="420" y="80" width="30" height="40" as="geometry" />
        </mxCell>
        <mxCell id="Zt5FTZZe3lsU1F_ZuzoK-16" value="&lt;font size=&quot;1&quot; face=&quot;Times New Roman&quot;&gt;&lt;span style=&quot;font-size: 20px;&quot;&gt;&lt;b&gt;2&lt;/b&gt;&lt;/span&gt;&lt;/font&gt;" style="text;html=1;align=center;verticalAlign=middle;resizable=0;points=[];autosize=1;strokeColor=none;fillColor=none;" parent="1" vertex="1">
          <mxGeometry x="420" y="260" width="30" height="40" as="geometry" />
        </mxCell>
        <mxCell id="Zt5FTZZe3lsU1F_ZuzoK-17" value="&lt;font size=&quot;1&quot; face=&quot;Times New Roman&quot;&gt;&lt;span style=&quot;font-size: 20px;&quot;&gt;&lt;b&gt;2&lt;/b&gt;&lt;/span&gt;&lt;/font&gt;" style="text;html=1;align=center;verticalAlign=middle;resizable=0;points=[];autosize=1;strokeColor=none;fillColor=none;" parent="1" vertex="1">
          <mxGeometry x="340" y="330" width="30" height="40" as="geometry" />
        </mxCell>
        <mxCell id="Zt5FTZZe3lsU1F_ZuzoK-18" value="&lt;font size=&quot;1&quot; face=&quot;Times New Roman&quot;&gt;&lt;span style=&quot;font-size: 20px;&quot;&gt;&lt;b&gt;2&lt;/b&gt;&lt;/span&gt;&lt;/font&gt;" style="text;html=1;align=center;verticalAlign=middle;resizable=0;points=[];autosize=1;strokeColor=none;fillColor=none;" parent="1" vertex="1">
          <mxGeometry x="470" y="330" width="30" height="40" as="geometry" />
        </mxCell>
        <mxCell id="Zt5FTZZe3lsU1F_ZuzoK-19" value="&lt;font size=&quot;1&quot; face=&quot;Times New Roman&quot;&gt;&lt;span style=&quot;font-size: 20px;&quot;&gt;&lt;b&gt;2&lt;/b&gt;&lt;/span&gt;&lt;/font&gt;" style="text;html=1;align=center;verticalAlign=middle;resizable=0;points=[];autosize=1;strokeColor=none;fillColor=none;" parent="1" vertex="1">
          <mxGeometry x="420" y="340" width="30" height="40" as="geometry" />
        </mxCell>
        <mxCell id="Zt5FTZZe3lsU1F_ZuzoK-20" value="&lt;font size=&quot;1&quot; face=&quot;Times New Roman&quot;&gt;&lt;span style=&quot;font-size: 20px;&quot;&gt;&lt;b&gt;1&lt;/b&gt;&lt;/span&gt;&lt;/font&gt;" style="text;html=1;align=center;verticalAlign=middle;resizable=0;points=[];autosize=1;strokeColor=none;fillColor=none;" parent="1" vertex="1">
          <mxGeometry x="540" y="440" width="30" height="40" as="geometry" />
        </mxCell>
        <mxCell id="Zt5FTZZe3lsU1F_ZuzoK-21" value="&lt;font size=&quot;1&quot; face=&quot;Times New Roman&quot;&gt;&lt;span style=&quot;font-size: 20px;&quot;&gt;&lt;b&gt;2&lt;/b&gt;&lt;/span&gt;&lt;/font&gt;" style="text;html=1;align=center;verticalAlign=middle;resizable=0;points=[];autosize=1;strokeColor=none;fillColor=none;" parent="1" vertex="1">
          <mxGeometry x="540" y="520" width="30" height="40" as="geometry" />
        </mxCell>
        <mxCell id="_8dhKZwRJzOUhoa2UiC7-1" value="" style="ellipse;whiteSpace=wrap;html=1;aspect=fixed;strokeWidth=2;fontSize=15;" parent="1" vertex="1">
          <mxGeometry x="630" y="380" width="60" height="60" as="geometry" />
        </mxCell>
        <mxCell id="_8dhKZwRJzOUhoa2UiC7-2" value="&lt;font face=&quot;Helvetica&quot; style=&quot;font-size: 24px;&quot;&gt;3&lt;/font&gt;" style="ellipse;whiteSpace=wrap;html=1;aspect=fixed;strokeWidth=2;" parent="1" vertex="1">
          <mxGeometry x="760" y="300" width="40" height="40" as="geometry" />
        </mxCell>
        <mxCell id="_8dhKZwRJzOUhoa2UiC7-3" value="&lt;span style=&quot;font-size: 24px;&quot;&gt;&lt;span style=&quot;font-style: italic;&quot;&gt;B&lt;/span&gt;&lt;span style=&quot;&quot;&gt;&lt;sub style=&quot;&quot;&gt;0&lt;/sub&gt;&lt;/span&gt;&lt;/span&gt;" style="text;html=1;align=center;verticalAlign=middle;resizable=0;points=[];autosize=1;strokeColor=none;fillColor=none;strokeWidth=1;fontFamily=Times New Roman;fontStyle=0" parent="1" vertex="1">
          <mxGeometry x="635" y="385" width="50" height="50" as="geometry" />
        </mxCell>
        <mxCell id="_8dhKZwRJzOUhoa2UiC7-4" value="&lt;var style=&quot;font-size: 24px;&quot; class=&quot;vector&quot;&gt;&lt;span style=&quot;font-size: 24px;&quot;&gt;&lt;font style=&quot;font-size: 24px;&quot;&gt;⃗&lt;/font&gt;&lt;/span&gt;&lt;/var&gt;" style="text;html=1;align=center;verticalAlign=middle;resizable=0;points=[];autosize=1;strokeColor=none;fillColor=none;fontFamily=Times New Roman;fontSize=24;" parent="1" vertex="1">
          <mxGeometry x="650" y="380" width="20" height="40" as="geometry" />
        </mxCell>
        <mxCell id="_8dhKZwRJzOUhoa2UiC7-5" value="" style="ellipse;whiteSpace=wrap;html=1;aspect=fixed;strokeWidth=2;fontSize=15;" parent="1" vertex="1">
          <mxGeometry x="750" y="380" width="60" height="60" as="geometry" />
        </mxCell>
        <mxCell id="_8dhKZwRJzOUhoa2UiC7-6" value="&lt;span style=&quot;font-size: 24px;&quot;&gt;&lt;span style=&quot;font-style: italic;&quot;&gt;B&lt;/span&gt;&lt;span style=&quot;&quot;&gt;&lt;sub style=&quot;&quot;&gt;1&lt;/sub&gt;&lt;/span&gt;&lt;/span&gt;" style="text;html=1;align=center;verticalAlign=middle;resizable=0;points=[];autosize=1;strokeColor=none;fillColor=none;strokeWidth=1;fontFamily=Times New Roman;fontStyle=0" parent="1" vertex="1">
          <mxGeometry x="755" y="385" width="50" height="50" as="geometry" />
        </mxCell>
        <mxCell id="_8dhKZwRJzOUhoa2UiC7-7" value="&lt;var style=&quot;font-size: 24px;&quot; class=&quot;vector&quot;&gt;&lt;span style=&quot;font-size: 24px;&quot;&gt;&lt;font style=&quot;font-size: 24px;&quot;&gt;⃗&lt;/font&gt;&lt;/span&gt;&lt;/var&gt;" style="text;html=1;align=center;verticalAlign=middle;resizable=0;points=[];autosize=1;strokeColor=none;fillColor=none;fontFamily=Times New Roman;fontSize=24;" parent="1" vertex="1">
          <mxGeometry x="770" y="380" width="20" height="40" as="geometry" />
        </mxCell>
        <mxCell id="_8dhKZwRJzOUhoa2UiC7-8" value="" style="ellipse;whiteSpace=wrap;html=1;aspect=fixed;strokeWidth=2;fontSize=15;" parent="1" vertex="1">
          <mxGeometry x="870" y="380" width="60" height="60" as="geometry" />
        </mxCell>
        <mxCell id="_8dhKZwRJzOUhoa2UiC7-9" value="&lt;span style=&quot;font-size: 24px;&quot;&gt;&lt;span style=&quot;font-style: italic;&quot;&gt;B&lt;/span&gt;&lt;span style=&quot;&quot;&gt;&lt;sub style=&quot;&quot;&gt;3&lt;/sub&gt;&lt;/span&gt;&lt;/span&gt;" style="text;html=1;align=center;verticalAlign=middle;resizable=0;points=[];autosize=1;strokeColor=none;fillColor=none;strokeWidth=1;fontFamily=Times New Roman;fontStyle=0" parent="1" vertex="1">
          <mxGeometry x="875" y="385" width="50" height="50" as="geometry" />
        </mxCell>
        <mxCell id="_8dhKZwRJzOUhoa2UiC7-10" value="&lt;var style=&quot;font-size: 24px;&quot; class=&quot;vector&quot;&gt;&lt;span style=&quot;font-size: 24px;&quot;&gt;&lt;font style=&quot;font-size: 24px;&quot;&gt;⃗&lt;/font&gt;&lt;/span&gt;&lt;/var&gt;" style="text;html=1;align=center;verticalAlign=middle;resizable=0;points=[];autosize=1;strokeColor=none;fillColor=none;fontFamily=Times New Roman;fontSize=24;" parent="1" vertex="1">
          <mxGeometry x="890" y="380" width="20" height="40" as="geometry" />
        </mxCell>
        <mxCell id="_8dhKZwRJzOUhoa2UiC7-11" value="" style="ellipse;whiteSpace=wrap;html=1;aspect=fixed;strokeWidth=2;fontSize=15;" parent="1" vertex="1">
          <mxGeometry x="750" y="200" width="60" height="60" as="geometry" />
        </mxCell>
        <mxCell id="_8dhKZwRJzOUhoa2UiC7-12" value="&lt;span style=&quot;font-size: 24px;&quot;&gt;&lt;span style=&quot;font-style: italic;&quot;&gt;B&lt;/span&gt;&lt;span style=&quot;&quot;&gt;&lt;sub style=&quot;&quot;&gt;4&lt;/sub&gt;&lt;/span&gt;&lt;/span&gt;" style="text;html=1;align=center;verticalAlign=middle;resizable=0;points=[];autosize=1;strokeColor=none;fillColor=none;strokeWidth=1;fontFamily=Times New Roman;fontStyle=0" parent="1" vertex="1">
          <mxGeometry x="755" y="205" width="50" height="50" as="geometry" />
        </mxCell>
        <mxCell id="_8dhKZwRJzOUhoa2UiC7-13" value="&lt;var style=&quot;font-size: 24px;&quot; class=&quot;vector&quot;&gt;&lt;span style=&quot;font-size: 24px;&quot;&gt;&lt;font style=&quot;font-size: 24px;&quot;&gt;⃗&lt;/font&gt;&lt;/span&gt;&lt;/var&gt;" style="text;html=1;align=center;verticalAlign=middle;resizable=0;points=[];autosize=1;strokeColor=none;fillColor=none;fontFamily=Times New Roman;fontSize=24;" parent="1" vertex="1">
          <mxGeometry x="770" y="200" width="20" height="40" as="geometry" />
        </mxCell>
        <mxCell id="_8dhKZwRJzOUhoa2UiC7-14" value="&lt;font face=&quot;Helvetica&quot; style=&quot;font-size: 24px;&quot;&gt;6&lt;/font&gt;" style="ellipse;whiteSpace=wrap;html=1;aspect=fixed;strokeWidth=2;" parent="1" vertex="1">
          <mxGeometry x="880" y="480" width="40" height="40" as="geometry" />
        </mxCell>
        <mxCell id="_8dhKZwRJzOUhoa2UiC7-15" value="&lt;font face=&quot;Helvetica&quot; style=&quot;font-size: 24px;&quot;&gt;1&lt;/font&gt;" style="ellipse;whiteSpace=wrap;html=1;aspect=fixed;strokeWidth=2;" parent="1" vertex="1">
          <mxGeometry x="760" y="120" width="40" height="40" as="geometry" />
        </mxCell>
        <mxCell id="_8dhKZwRJzOUhoa2UiC7-16" value="" style="ellipse;whiteSpace=wrap;html=1;aspect=fixed;strokeWidth=2;fontSize=15;" parent="1" vertex="1">
          <mxGeometry x="870" y="560" width="60" height="60" as="geometry" />
        </mxCell>
        <mxCell id="_8dhKZwRJzOUhoa2UiC7-17" value="&lt;span style=&quot;font-size: 24px;&quot;&gt;&lt;span style=&quot;font-style: italic;&quot;&gt;B&lt;/span&gt;&lt;span style=&quot;&quot;&gt;&lt;sub style=&quot;&quot;&gt;2&lt;/sub&gt;&lt;/span&gt;&lt;/span&gt;" style="text;html=1;align=center;verticalAlign=middle;resizable=0;points=[];autosize=1;strokeColor=none;fillColor=none;strokeWidth=1;fontFamily=Times New Roman;fontStyle=0" parent="1" vertex="1">
          <mxGeometry x="875" y="565" width="50" height="50" as="geometry" />
        </mxCell>
        <mxCell id="_8dhKZwRJzOUhoa2UiC7-18" value="&lt;var style=&quot;font-size: 24px;&quot; class=&quot;vector&quot;&gt;&lt;span style=&quot;font-size: 24px;&quot;&gt;&lt;font style=&quot;font-size: 24px;&quot;&gt;⃗&lt;/font&gt;&lt;/span&gt;&lt;/var&gt;" style="text;html=1;align=center;verticalAlign=middle;resizable=0;points=[];autosize=1;strokeColor=none;fillColor=none;fontFamily=Times New Roman;fontSize=24;" parent="1" vertex="1">
          <mxGeometry x="890" y="560" width="20" height="40" as="geometry" />
        </mxCell>
        <mxCell id="_8dhKZwRJzOUhoa2UiC7-19" value="" style="ellipse;whiteSpace=wrap;html=1;aspect=fixed;strokeWidth=2;fontSize=15;" parent="1" vertex="1">
          <mxGeometry x="630" y="200" width="60" height="60" as="geometry" />
        </mxCell>
        <mxCell id="_8dhKZwRJzOUhoa2UiC7-20" value="&lt;span style=&quot;font-size: 24px;&quot;&gt;&lt;span style=&quot;font-style: italic;&quot;&gt;B&lt;/span&gt;&lt;span style=&quot;&quot;&gt;&lt;sub style=&quot;&quot;&gt;5&lt;/sub&gt;&lt;/span&gt;&lt;/span&gt;" style="text;html=1;align=center;verticalAlign=middle;resizable=0;points=[];autosize=1;strokeColor=none;fillColor=none;strokeWidth=1;fontFamily=Times New Roman;fontStyle=0" parent="1" vertex="1">
          <mxGeometry x="635" y="205" width="50" height="50" as="geometry" />
        </mxCell>
        <mxCell id="_8dhKZwRJzOUhoa2UiC7-21" value="&lt;var style=&quot;font-size: 24px;&quot; class=&quot;vector&quot;&gt;&lt;span style=&quot;font-size: 24px;&quot;&gt;&lt;font style=&quot;font-size: 24px;&quot;&gt;⃗&lt;/font&gt;&lt;/span&gt;&lt;/var&gt;" style="text;html=1;align=center;verticalAlign=middle;resizable=0;points=[];autosize=1;strokeColor=none;fillColor=none;fontFamily=Times New Roman;fontSize=24;" parent="1" vertex="1">
          <mxGeometry x="650" y="200" width="20" height="40" as="geometry" />
        </mxCell>
        <mxCell id="_8dhKZwRJzOUhoa2UiC7-22" value="" style="ellipse;whiteSpace=wrap;html=1;aspect=fixed;strokeWidth=2;fontSize=15;" parent="1" vertex="1">
          <mxGeometry x="750" y="20" width="60" height="60" as="geometry" />
        </mxCell>
        <mxCell id="_8dhKZwRJzOUhoa2UiC7-23" value="&lt;span style=&quot;font-size: 24px;&quot;&gt;&lt;span style=&quot;font-style: italic;&quot;&gt;B&lt;/span&gt;&lt;span style=&quot;&quot;&gt;&lt;sub style=&quot;&quot;&gt;6&lt;/sub&gt;&lt;/span&gt;&lt;/span&gt;" style="text;html=1;align=center;verticalAlign=middle;resizable=0;points=[];autosize=1;strokeColor=none;fillColor=none;strokeWidth=1;fontFamily=Times New Roman;fontStyle=0" parent="1" vertex="1">
          <mxGeometry x="755" y="25" width="50" height="50" as="geometry" />
        </mxCell>
        <mxCell id="_8dhKZwRJzOUhoa2UiC7-24" value="&lt;var style=&quot;font-size: 24px;&quot; class=&quot;vector&quot;&gt;&lt;span style=&quot;font-size: 24px;&quot;&gt;&lt;font style=&quot;font-size: 24px;&quot;&gt;⃗&lt;/font&gt;&lt;/span&gt;&lt;/var&gt;" style="text;html=1;align=center;verticalAlign=middle;resizable=0;points=[];autosize=1;strokeColor=none;fillColor=none;fontFamily=Times New Roman;fontSize=24;" parent="1" vertex="1">
          <mxGeometry x="770" y="20" width="20" height="40" as="geometry" />
        </mxCell>
        <mxCell id="_8dhKZwRJzOUhoa2UiC7-25" value="" style="endArrow=none;html=1;rounded=0;entryX=0.5;entryY=0;entryDx=0;entryDy=0;exitX=0.5;exitY=1;exitDx=0;exitDy=0;fontSize=11;strokeWidth=2;" parent="1" source="_8dhKZwRJzOUhoa2UiC7-14" target="_8dhKZwRJzOUhoa2UiC7-16" edge="1">
          <mxGeometry width="50" height="50" relative="1" as="geometry">
            <mxPoint x="560" y="590" as="sourcePoint" />
            <mxPoint x="560" y="630" as="targetPoint" />
          </mxGeometry>
        </mxCell>
        <mxCell id="_8dhKZwRJzOUhoa2UiC7-26" value="&lt;font face=&quot;Helvetica&quot; style=&quot;font-size: 24px;&quot;&gt;0&lt;/font&gt;" style="ellipse;whiteSpace=wrap;html=1;aspect=fixed;strokeWidth=2;" parent="1" vertex="1">
          <mxGeometry x="880" y="120" width="40" height="40" as="geometry" />
        </mxCell>
        <mxCell id="_8dhKZwRJzOUhoa2UiC7-27" value="" style="ellipse;whiteSpace=wrap;html=1;aspect=fixed;strokeWidth=2;fontSize=15;" parent="1" vertex="1">
          <mxGeometry x="870" y="200" width="60" height="60" as="geometry" />
        </mxCell>
        <mxCell id="_8dhKZwRJzOUhoa2UiC7-28" value="&lt;span style=&quot;font-size: 24px;&quot;&gt;&lt;span style=&quot;font-style: italic;&quot;&gt;B&lt;/span&gt;&lt;span style=&quot;&quot;&gt;&lt;sub style=&quot;&quot;&gt;7&lt;/sub&gt;&lt;/span&gt;&lt;/span&gt;" style="text;html=1;align=center;verticalAlign=middle;resizable=0;points=[];autosize=1;strokeColor=none;fillColor=none;strokeWidth=1;fontFamily=Times New Roman;fontStyle=0" parent="1" vertex="1">
          <mxGeometry x="875" y="205" width="50" height="50" as="geometry" />
        </mxCell>
        <mxCell id="_8dhKZwRJzOUhoa2UiC7-29" value="&lt;var style=&quot;font-size: 24px;&quot; class=&quot;vector&quot;&gt;&lt;span style=&quot;font-size: 24px;&quot;&gt;&lt;font style=&quot;font-size: 24px;&quot;&gt;⃗&lt;/font&gt;&lt;/span&gt;&lt;/var&gt;" style="text;html=1;align=center;verticalAlign=middle;resizable=0;points=[];autosize=1;strokeColor=none;fillColor=none;fontFamily=Times New Roman;fontSize=24;" parent="1" vertex="1">
          <mxGeometry x="890" y="200" width="20" height="40" as="geometry" />
        </mxCell>
        <mxCell id="_8dhKZwRJzOUhoa2UiC7-30" value="" style="endArrow=none;html=1;rounded=0;entryX=0.5;entryY=1;entryDx=0;entryDy=0;exitX=0.5;exitY=0;exitDx=0;exitDy=0;fontSize=11;strokeWidth=2;" parent="1" source="_8dhKZwRJzOUhoa2UiC7-27" target="_8dhKZwRJzOUhoa2UiC7-26" edge="1">
          <mxGeometry width="50" height="50" relative="1" as="geometry">
            <mxPoint x="990" y="490" as="sourcePoint" />
            <mxPoint x="990" y="450" as="targetPoint" />
          </mxGeometry>
        </mxCell>
        <mxCell id="_8dhKZwRJzOUhoa2UiC7-31" value="&lt;font size=&quot;1&quot; face=&quot;Times New Roman&quot;&gt;&lt;span style=&quot;font-size: 20px;&quot;&gt;&lt;b&gt;0&lt;/b&gt;&lt;/span&gt;&lt;/font&gt;" style="text;html=1;align=center;verticalAlign=middle;resizable=0;points=[];autosize=1;strokeColor=none;fillColor=none;" parent="1" vertex="1">
          <mxGeometry x="840" y="70" width="30" height="40" as="geometry" />
        </mxCell>
        <mxCell id="_8dhKZwRJzOUhoa2UiC7-32" value="" style="endArrow=none;html=1;rounded=0;entryX=1;entryY=1;entryDx=0;entryDy=0;exitX=0;exitY=0;exitDx=0;exitDy=0;fontSize=11;strokeWidth=2;" parent="1" source="_8dhKZwRJzOUhoa2UiC7-26" target="_8dhKZwRJzOUhoa2UiC7-22" edge="1">
          <mxGeometry width="50" height="50" relative="1" as="geometry">
            <mxPoint x="990" y="570" as="sourcePoint" />
            <mxPoint x="910" y="170" as="targetPoint" />
          </mxGeometry>
        </mxCell>
        <mxCell id="_8dhKZwRJzOUhoa2UiC7-35" value="" style="endArrow=none;html=1;rounded=0;entryX=1;entryY=0;entryDx=0;entryDy=0;fontSize=11;strokeWidth=2;exitX=0;exitY=1;exitDx=0;exitDy=0;" parent="1" source="_8dhKZwRJzOUhoa2UiC7-15" target="_8dhKZwRJzOUhoa2UiC7-19" edge="1">
          <mxGeometry width="50" height="50" relative="1" as="geometry">
            <mxPoint x="790" y="210" as="sourcePoint" />
            <mxPoint x="790" y="170" as="targetPoint" />
          </mxGeometry>
        </mxCell>
        <mxCell id="_8dhKZwRJzOUhoa2UiC7-37" value="" style="endArrow=none;html=1;rounded=0;entryX=1;entryY=0;entryDx=0;entryDy=0;fontSize=11;strokeWidth=2;exitX=0;exitY=1;exitDx=0;exitDy=0;" parent="1" source="_8dhKZwRJzOUhoa2UiC7-2" target="_8dhKZwRJzOUhoa2UiC7-1" edge="1">
          <mxGeometry width="50" height="50" relative="1" as="geometry">
            <mxPoint x="790" y="270" as="sourcePoint" />
            <mxPoint x="790" y="310" as="targetPoint" />
          </mxGeometry>
        </mxCell>
        <mxCell id="_8dhKZwRJzOUhoa2UiC7-38" value="" style="endArrow=none;html=1;rounded=0;entryX=0.5;entryY=0;entryDx=0;entryDy=0;fontSize=11;strokeWidth=2;exitX=0.5;exitY=1;exitDx=0;exitDy=0;" parent="1" source="_8dhKZwRJzOUhoa2UiC7-2" target="_8dhKZwRJzOUhoa2UiC7-5" edge="1">
          <mxGeometry width="50" height="50" relative="1" as="geometry">
            <mxPoint x="776" y="338" as="sourcePoint" />
            <mxPoint x="691" y="399" as="targetPoint" />
          </mxGeometry>
        </mxCell>
        <mxCell id="_8dhKZwRJzOUhoa2UiC7-39" value="" style="endArrow=none;html=1;rounded=0;entryX=0;entryY=0;entryDx=0;entryDy=0;fontSize=11;strokeWidth=2;exitX=1;exitY=1;exitDx=0;exitDy=0;" parent="1" source="_8dhKZwRJzOUhoa2UiC7-2" target="_8dhKZwRJzOUhoa2UiC7-8" edge="1">
          <mxGeometry width="50" height="50" relative="1" as="geometry">
            <mxPoint x="790" y="350" as="sourcePoint" />
            <mxPoint x="790" y="390" as="targetPoint" />
          </mxGeometry>
        </mxCell>
        <mxCell id="_8dhKZwRJzOUhoa2UiC7-40" value="" style="endArrow=none;html=1;rounded=0;entryX=0.5;entryY=0;entryDx=0;entryDy=0;fontSize=11;strokeWidth=2;exitX=0.5;exitY=1;exitDx=0;exitDy=0;" parent="1" source="_8dhKZwRJzOUhoa2UiC7-8" target="_8dhKZwRJzOUhoa2UiC7-14" edge="1">
          <mxGeometry width="50" height="50" relative="1" as="geometry">
            <mxPoint x="790" y="350" as="sourcePoint" />
            <mxPoint x="790" y="390" as="targetPoint" />
          </mxGeometry>
        </mxCell>
        <mxCell id="_8dhKZwRJzOUhoa2UiC7-41" value="&lt;font size=&quot;1&quot; face=&quot;Times New Roman&quot;&gt;&lt;span style=&quot;font-size: 20px;&quot;&gt;&lt;b&gt;0&lt;/b&gt;&lt;/span&gt;&lt;/font&gt;" style="text;html=1;align=center;verticalAlign=middle;resizable=0;points=[];autosize=1;strokeColor=none;fillColor=none;" parent="1" vertex="1">
          <mxGeometry x="900" y="160" width="30" height="40" as="geometry" />
        </mxCell>
        <mxCell id="_8dhKZwRJzOUhoa2UiC7-42" value="&lt;font size=&quot;1&quot; face=&quot;Times New Roman&quot;&gt;&lt;span style=&quot;font-size: 20px;&quot;&gt;&lt;b&gt;0&lt;/b&gt;&lt;/span&gt;&lt;/font&gt;" style="text;html=1;align=center;verticalAlign=middle;resizable=0;points=[];autosize=1;strokeColor=none;fillColor=none;" parent="1" vertex="1">
          <mxGeometry x="780" y="160" width="30" height="40" as="geometry" />
        </mxCell>
        <mxCell id="_8dhKZwRJzOUhoa2UiC7-43" value="&lt;font size=&quot;1&quot; face=&quot;Times New Roman&quot;&gt;&lt;span style=&quot;font-size: 20px;&quot;&gt;&lt;b&gt;0&lt;/b&gt;&lt;/span&gt;&lt;/font&gt;" style="text;html=1;align=center;verticalAlign=middle;resizable=0;points=[];autosize=1;strokeColor=none;fillColor=none;" parent="1" vertex="1">
          <mxGeometry x="700" y="150" width="30" height="40" as="geometry" />
        </mxCell>
        <mxCell id="_8dhKZwRJzOUhoa2UiC7-44" value="&lt;font size=&quot;1&quot; face=&quot;Times New Roman&quot;&gt;&lt;span style=&quot;font-size: 20px;&quot;&gt;&lt;b&gt;1&lt;/b&gt;&lt;/span&gt;&lt;/font&gt;" style="text;html=1;align=center;verticalAlign=middle;resizable=0;points=[];autosize=1;strokeColor=none;fillColor=none;" parent="1" vertex="1">
          <mxGeometry x="780" y="80" width="30" height="40" as="geometry" />
        </mxCell>
        <mxCell id="_8dhKZwRJzOUhoa2UiC7-45" value="&lt;font size=&quot;1&quot; face=&quot;Times New Roman&quot;&gt;&lt;span style=&quot;font-size: 20px;&quot;&gt;&lt;b&gt;2&lt;/b&gt;&lt;/span&gt;&lt;/font&gt;" style="text;html=1;align=center;verticalAlign=middle;resizable=0;points=[];autosize=1;strokeColor=none;fillColor=none;" parent="1" vertex="1">
          <mxGeometry x="780" y="260" width="30" height="40" as="geometry" />
        </mxCell>
        <mxCell id="_8dhKZwRJzOUhoa2UiC7-46" value="&lt;font size=&quot;1&quot; face=&quot;Times New Roman&quot;&gt;&lt;span style=&quot;font-size: 20px;&quot;&gt;&lt;b&gt;2&lt;/b&gt;&lt;/span&gt;&lt;/font&gt;" style="text;html=1;align=center;verticalAlign=middle;resizable=0;points=[];autosize=1;strokeColor=none;fillColor=none;" parent="1" vertex="1">
          <mxGeometry x="700" y="330" width="30" height="40" as="geometry" />
        </mxCell>
        <mxCell id="_8dhKZwRJzOUhoa2UiC7-47" value="&lt;font size=&quot;1&quot; face=&quot;Times New Roman&quot;&gt;&lt;span style=&quot;font-size: 20px;&quot;&gt;&lt;b&gt;2&lt;/b&gt;&lt;/span&gt;&lt;/font&gt;" style="text;html=1;align=center;verticalAlign=middle;resizable=0;points=[];autosize=1;strokeColor=none;fillColor=none;" parent="1" vertex="1">
          <mxGeometry x="830" y="330" width="30" height="40" as="geometry" />
        </mxCell>
        <mxCell id="_8dhKZwRJzOUhoa2UiC7-48" value="&lt;font size=&quot;1&quot; face=&quot;Times New Roman&quot;&gt;&lt;span style=&quot;font-size: 20px;&quot;&gt;&lt;b&gt;2&lt;/b&gt;&lt;/span&gt;&lt;/font&gt;" style="text;html=1;align=center;verticalAlign=middle;resizable=0;points=[];autosize=1;strokeColor=none;fillColor=none;" parent="1" vertex="1">
          <mxGeometry x="780" y="340" width="30" height="40" as="geometry" />
        </mxCell>
        <mxCell id="_8dhKZwRJzOUhoa2UiC7-49" value="&lt;font size=&quot;1&quot; face=&quot;Times New Roman&quot;&gt;&lt;span style=&quot;font-size: 20px;&quot;&gt;&lt;b&gt;1&lt;/b&gt;&lt;/span&gt;&lt;/font&gt;" style="text;html=1;align=center;verticalAlign=middle;resizable=0;points=[];autosize=1;strokeColor=none;fillColor=none;" parent="1" vertex="1">
          <mxGeometry x="900" y="440" width="30" height="40" as="geometry" />
        </mxCell>
        <mxCell id="_8dhKZwRJzOUhoa2UiC7-50" value="&lt;font size=&quot;1&quot; face=&quot;Times New Roman&quot;&gt;&lt;span style=&quot;font-size: 20px;&quot;&gt;&lt;b&gt;2&lt;/b&gt;&lt;/span&gt;&lt;/font&gt;" style="text;html=1;align=center;verticalAlign=middle;resizable=0;points=[];autosize=1;strokeColor=none;fillColor=none;" parent="1" vertex="1">
          <mxGeometry x="900" y="520" width="30" height="40" as="geometry" />
        </mxCell>
        <mxCell id="_8dhKZwRJzOUhoa2UiC7-51" value="" style="ellipse;whiteSpace=wrap;html=1;aspect=fixed;strokeWidth=2;fontSize=15;" parent="1" vertex="1">
          <mxGeometry x="990" y="379" width="60" height="60" as="geometry" />
        </mxCell>
        <mxCell id="_8dhKZwRJzOUhoa2UiC7-52" value="&lt;font face=&quot;Helvetica&quot; style=&quot;font-size: 24px;&quot;&gt;3&lt;/font&gt;" style="ellipse;whiteSpace=wrap;html=1;aspect=fixed;strokeWidth=2;" parent="1" vertex="1">
          <mxGeometry x="1120" y="299" width="40" height="40" as="geometry" />
        </mxCell>
        <mxCell id="_8dhKZwRJzOUhoa2UiC7-53" value="&lt;span style=&quot;font-size: 24px;&quot;&gt;&lt;span style=&quot;font-style: italic;&quot;&gt;B&lt;/span&gt;&lt;span style=&quot;&quot;&gt;&lt;sub style=&quot;&quot;&gt;0&lt;/sub&gt;&lt;/span&gt;&lt;/span&gt;" style="text;html=1;align=center;verticalAlign=middle;resizable=0;points=[];autosize=1;strokeColor=none;fillColor=none;strokeWidth=1;fontFamily=Times New Roman;fontStyle=0" parent="1" vertex="1">
          <mxGeometry x="995" y="384" width="50" height="50" as="geometry" />
        </mxCell>
        <mxCell id="_8dhKZwRJzOUhoa2UiC7-54" value="&lt;var style=&quot;font-size: 24px;&quot; class=&quot;vector&quot;&gt;&lt;span style=&quot;font-size: 24px;&quot;&gt;&lt;font style=&quot;font-size: 24px;&quot;&gt;⃗&lt;/font&gt;&lt;/span&gt;&lt;/var&gt;" style="text;html=1;align=center;verticalAlign=middle;resizable=0;points=[];autosize=1;strokeColor=none;fillColor=none;fontFamily=Times New Roman;fontSize=24;" parent="1" vertex="1">
          <mxGeometry x="1010" y="379" width="20" height="40" as="geometry" />
        </mxCell>
        <mxCell id="_8dhKZwRJzOUhoa2UiC7-55" value="" style="ellipse;whiteSpace=wrap;html=1;aspect=fixed;strokeWidth=2;fontSize=15;" parent="1" vertex="1">
          <mxGeometry x="1110" y="379" width="60" height="60" as="geometry" />
        </mxCell>
        <mxCell id="_8dhKZwRJzOUhoa2UiC7-56" value="&lt;span style=&quot;font-size: 24px;&quot;&gt;&lt;span style=&quot;font-style: italic;&quot;&gt;B&lt;/span&gt;&lt;span style=&quot;&quot;&gt;&lt;sub style=&quot;&quot;&gt;1&lt;/sub&gt;&lt;/span&gt;&lt;/span&gt;" style="text;html=1;align=center;verticalAlign=middle;resizable=0;points=[];autosize=1;strokeColor=none;fillColor=none;strokeWidth=1;fontFamily=Times New Roman;fontStyle=0" parent="1" vertex="1">
          <mxGeometry x="1115" y="384" width="50" height="50" as="geometry" />
        </mxCell>
        <mxCell id="_8dhKZwRJzOUhoa2UiC7-57" value="&lt;var style=&quot;font-size: 24px;&quot; class=&quot;vector&quot;&gt;&lt;span style=&quot;font-size: 24px;&quot;&gt;&lt;font style=&quot;font-size: 24px;&quot;&gt;⃗&lt;/font&gt;&lt;/span&gt;&lt;/var&gt;" style="text;html=1;align=center;verticalAlign=middle;resizable=0;points=[];autosize=1;strokeColor=none;fillColor=none;fontFamily=Times New Roman;fontSize=24;" parent="1" vertex="1">
          <mxGeometry x="1130" y="379" width="20" height="40" as="geometry" />
        </mxCell>
        <mxCell id="_8dhKZwRJzOUhoa2UiC7-58" value="" style="ellipse;whiteSpace=wrap;html=1;aspect=fixed;strokeWidth=2;fontSize=15;" parent="1" vertex="1">
          <mxGeometry x="1230" y="379" width="60" height="60" as="geometry" />
        </mxCell>
        <mxCell id="_8dhKZwRJzOUhoa2UiC7-59" value="&lt;span style=&quot;font-size: 24px;&quot;&gt;&lt;span style=&quot;font-style: italic;&quot;&gt;B&lt;/span&gt;&lt;span style=&quot;&quot;&gt;&lt;sub style=&quot;&quot;&gt;3&lt;/sub&gt;&lt;/span&gt;&lt;/span&gt;" style="text;html=1;align=center;verticalAlign=middle;resizable=0;points=[];autosize=1;strokeColor=none;fillColor=none;strokeWidth=1;fontFamily=Times New Roman;fontStyle=0" parent="1" vertex="1">
          <mxGeometry x="1235" y="384" width="50" height="50" as="geometry" />
        </mxCell>
        <mxCell id="_8dhKZwRJzOUhoa2UiC7-60" value="&lt;var style=&quot;font-size: 24px;&quot; class=&quot;vector&quot;&gt;&lt;span style=&quot;font-size: 24px;&quot;&gt;&lt;font style=&quot;font-size: 24px;&quot;&gt;⃗&lt;/font&gt;&lt;/span&gt;&lt;/var&gt;" style="text;html=1;align=center;verticalAlign=middle;resizable=0;points=[];autosize=1;strokeColor=none;fillColor=none;fontFamily=Times New Roman;fontSize=24;" parent="1" vertex="1">
          <mxGeometry x="1250" y="379" width="20" height="40" as="geometry" />
        </mxCell>
        <mxCell id="_8dhKZwRJzOUhoa2UiC7-61" value="" style="ellipse;whiteSpace=wrap;html=1;aspect=fixed;strokeWidth=2;fontSize=15;" parent="1" vertex="1">
          <mxGeometry x="1110" y="199" width="60" height="60" as="geometry" />
        </mxCell>
        <mxCell id="_8dhKZwRJzOUhoa2UiC7-62" value="&lt;span style=&quot;font-size: 24px;&quot;&gt;&lt;span style=&quot;font-style: italic;&quot;&gt;B&lt;/span&gt;&lt;span style=&quot;&quot;&gt;&lt;sub style=&quot;&quot;&gt;4&lt;/sub&gt;&lt;/span&gt;&lt;/span&gt;" style="text;html=1;align=center;verticalAlign=middle;resizable=0;points=[];autosize=1;strokeColor=none;fillColor=none;strokeWidth=1;fontFamily=Times New Roman;fontStyle=0" parent="1" vertex="1">
          <mxGeometry x="1115" y="204" width="50" height="50" as="geometry" />
        </mxCell>
        <mxCell id="_8dhKZwRJzOUhoa2UiC7-63" value="&lt;var style=&quot;font-size: 24px;&quot; class=&quot;vector&quot;&gt;&lt;span style=&quot;font-size: 24px;&quot;&gt;&lt;font style=&quot;font-size: 24px;&quot;&gt;⃗&lt;/font&gt;&lt;/span&gt;&lt;/var&gt;" style="text;html=1;align=center;verticalAlign=middle;resizable=0;points=[];autosize=1;strokeColor=none;fillColor=none;fontFamily=Times New Roman;fontSize=24;" parent="1" vertex="1">
          <mxGeometry x="1130" y="199" width="20" height="40" as="geometry" />
        </mxCell>
        <mxCell id="_8dhKZwRJzOUhoa2UiC7-64" value="&lt;font face=&quot;Helvetica&quot; style=&quot;font-size: 24px;&quot;&gt;6&lt;/font&gt;" style="ellipse;whiteSpace=wrap;html=1;aspect=fixed;strokeWidth=2;" parent="1" vertex="1">
          <mxGeometry x="1240" y="479" width="40" height="40" as="geometry" />
        </mxCell>
        <mxCell id="_8dhKZwRJzOUhoa2UiC7-65" value="&lt;font face=&quot;Helvetica&quot; style=&quot;font-size: 24px;&quot;&gt;1&lt;/font&gt;" style="ellipse;whiteSpace=wrap;html=1;aspect=fixed;strokeWidth=2;" parent="1" vertex="1">
          <mxGeometry x="1120" y="119" width="40" height="40" as="geometry" />
        </mxCell>
        <mxCell id="_8dhKZwRJzOUhoa2UiC7-66" value="" style="ellipse;whiteSpace=wrap;html=1;aspect=fixed;strokeWidth=2;fontSize=15;" parent="1" vertex="1">
          <mxGeometry x="1230" y="559" width="60" height="60" as="geometry" />
        </mxCell>
        <mxCell id="_8dhKZwRJzOUhoa2UiC7-67" value="&lt;span style=&quot;font-size: 24px;&quot;&gt;&lt;span style=&quot;font-style: italic;&quot;&gt;B&lt;/span&gt;&lt;span style=&quot;&quot;&gt;&lt;sub style=&quot;&quot;&gt;2&lt;/sub&gt;&lt;/span&gt;&lt;/span&gt;" style="text;html=1;align=center;verticalAlign=middle;resizable=0;points=[];autosize=1;strokeColor=none;fillColor=none;strokeWidth=1;fontFamily=Times New Roman;fontStyle=0" parent="1" vertex="1">
          <mxGeometry x="1235" y="564" width="50" height="50" as="geometry" />
        </mxCell>
        <mxCell id="_8dhKZwRJzOUhoa2UiC7-68" value="&lt;var style=&quot;font-size: 24px;&quot; class=&quot;vector&quot;&gt;&lt;span style=&quot;font-size: 24px;&quot;&gt;&lt;font style=&quot;font-size: 24px;&quot;&gt;⃗&lt;/font&gt;&lt;/span&gt;&lt;/var&gt;" style="text;html=1;align=center;verticalAlign=middle;resizable=0;points=[];autosize=1;strokeColor=none;fillColor=none;fontFamily=Times New Roman;fontSize=24;" parent="1" vertex="1">
          <mxGeometry x="1250" y="559" width="20" height="40" as="geometry" />
        </mxCell>
        <mxCell id="_8dhKZwRJzOUhoa2UiC7-69" value="" style="ellipse;whiteSpace=wrap;html=1;aspect=fixed;strokeWidth=2;fontSize=15;" parent="1" vertex="1">
          <mxGeometry x="990" y="199" width="60" height="60" as="geometry" />
        </mxCell>
        <mxCell id="_8dhKZwRJzOUhoa2UiC7-70" value="&lt;span style=&quot;font-size: 24px;&quot;&gt;&lt;span style=&quot;font-style: italic;&quot;&gt;B&lt;/span&gt;&lt;span style=&quot;&quot;&gt;&lt;sub style=&quot;&quot;&gt;5&lt;/sub&gt;&lt;/span&gt;&lt;/span&gt;" style="text;html=1;align=center;verticalAlign=middle;resizable=0;points=[];autosize=1;strokeColor=none;fillColor=none;strokeWidth=1;fontFamily=Times New Roman;fontStyle=0" parent="1" vertex="1">
          <mxGeometry x="995" y="204" width="50" height="50" as="geometry" />
        </mxCell>
        <mxCell id="_8dhKZwRJzOUhoa2UiC7-71" value="&lt;var style=&quot;font-size: 24px;&quot; class=&quot;vector&quot;&gt;&lt;span style=&quot;font-size: 24px;&quot;&gt;&lt;font style=&quot;font-size: 24px;&quot;&gt;⃗&lt;/font&gt;&lt;/span&gt;&lt;/var&gt;" style="text;html=1;align=center;verticalAlign=middle;resizable=0;points=[];autosize=1;strokeColor=none;fillColor=none;fontFamily=Times New Roman;fontSize=24;" parent="1" vertex="1">
          <mxGeometry x="1010" y="199" width="20" height="40" as="geometry" />
        </mxCell>
        <mxCell id="_8dhKZwRJzOUhoa2UiC7-72" value="" style="ellipse;whiteSpace=wrap;html=1;aspect=fixed;strokeWidth=2;fontSize=15;" parent="1" vertex="1">
          <mxGeometry x="1110" y="19" width="60" height="60" as="geometry" />
        </mxCell>
        <mxCell id="_8dhKZwRJzOUhoa2UiC7-73" value="&lt;span style=&quot;font-size: 24px;&quot;&gt;&lt;span style=&quot;font-style: italic;&quot;&gt;B&lt;/span&gt;&lt;span style=&quot;&quot;&gt;&lt;sub style=&quot;&quot;&gt;6&lt;/sub&gt;&lt;/span&gt;&lt;/span&gt;" style="text;html=1;align=center;verticalAlign=middle;resizable=0;points=[];autosize=1;strokeColor=none;fillColor=none;strokeWidth=1;fontFamily=Times New Roman;fontStyle=0" parent="1" vertex="1">
          <mxGeometry x="1115" y="24" width="50" height="50" as="geometry" />
        </mxCell>
        <mxCell id="_8dhKZwRJzOUhoa2UiC7-74" value="&lt;var style=&quot;font-size: 24px;&quot; class=&quot;vector&quot;&gt;&lt;span style=&quot;font-size: 24px;&quot;&gt;&lt;font style=&quot;font-size: 24px;&quot;&gt;⃗&lt;/font&gt;&lt;/span&gt;&lt;/var&gt;" style="text;html=1;align=center;verticalAlign=middle;resizable=0;points=[];autosize=1;strokeColor=none;fillColor=none;fontFamily=Times New Roman;fontSize=24;" parent="1" vertex="1">
          <mxGeometry x="1130" y="19" width="20" height="40" as="geometry" />
        </mxCell>
        <mxCell id="_8dhKZwRJzOUhoa2UiC7-75" value="" style="endArrow=none;html=1;rounded=0;entryX=0.5;entryY=0;entryDx=0;entryDy=0;exitX=0.5;exitY=1;exitDx=0;exitDy=0;fontSize=11;strokeWidth=2;" parent="1" source="_8dhKZwRJzOUhoa2UiC7-64" target="_8dhKZwRJzOUhoa2UiC7-66" edge="1">
          <mxGeometry width="50" height="50" relative="1" as="geometry">
            <mxPoint x="920" y="589" as="sourcePoint" />
            <mxPoint x="920" y="629" as="targetPoint" />
          </mxGeometry>
        </mxCell>
        <mxCell id="_8dhKZwRJzOUhoa2UiC7-76" value="&lt;font face=&quot;Helvetica&quot; style=&quot;font-size: 24px;&quot;&gt;0&lt;/font&gt;" style="ellipse;whiteSpace=wrap;html=1;aspect=fixed;strokeWidth=2;" parent="1" vertex="1">
          <mxGeometry x="1240" y="119" width="40" height="40" as="geometry" />
        </mxCell>
        <mxCell id="_8dhKZwRJzOUhoa2UiC7-77" value="" style="ellipse;whiteSpace=wrap;html=1;aspect=fixed;strokeWidth=2;fontSize=15;" parent="1" vertex="1">
          <mxGeometry x="1230" y="199" width="60" height="60" as="geometry" />
        </mxCell>
        <mxCell id="_8dhKZwRJzOUhoa2UiC7-78" value="&lt;span style=&quot;font-size: 24px;&quot;&gt;&lt;span style=&quot;font-style: italic;&quot;&gt;B&lt;/span&gt;&lt;span style=&quot;&quot;&gt;&lt;sub style=&quot;&quot;&gt;7&lt;/sub&gt;&lt;/span&gt;&lt;/span&gt;" style="text;html=1;align=center;verticalAlign=middle;resizable=0;points=[];autosize=1;strokeColor=none;fillColor=none;strokeWidth=1;fontFamily=Times New Roman;fontStyle=0" parent="1" vertex="1">
          <mxGeometry x="1235" y="204" width="50" height="50" as="geometry" />
        </mxCell>
        <mxCell id="_8dhKZwRJzOUhoa2UiC7-79" value="&lt;var style=&quot;font-size: 24px;&quot; class=&quot;vector&quot;&gt;&lt;span style=&quot;font-size: 24px;&quot;&gt;&lt;font style=&quot;font-size: 24px;&quot;&gt;⃗&lt;/font&gt;&lt;/span&gt;&lt;/var&gt;" style="text;html=1;align=center;verticalAlign=middle;resizable=0;points=[];autosize=1;strokeColor=none;fillColor=none;fontFamily=Times New Roman;fontSize=24;" parent="1" vertex="1">
          <mxGeometry x="1250" y="199" width="20" height="40" as="geometry" />
        </mxCell>
        <mxCell id="_8dhKZwRJzOUhoa2UiC7-80" value="" style="endArrow=none;html=1;rounded=0;entryX=0.5;entryY=1;entryDx=0;entryDy=0;exitX=0.5;exitY=0;exitDx=0;exitDy=0;fontSize=11;strokeWidth=2;" parent="1" source="_8dhKZwRJzOUhoa2UiC7-77" target="_8dhKZwRJzOUhoa2UiC7-76" edge="1">
          <mxGeometry width="50" height="50" relative="1" as="geometry">
            <mxPoint x="1350" y="489" as="sourcePoint" />
            <mxPoint x="1350" y="449" as="targetPoint" />
          </mxGeometry>
        </mxCell>
        <mxCell id="_8dhKZwRJzOUhoa2UiC7-81" value="&lt;font size=&quot;1&quot; face=&quot;Times New Roman&quot;&gt;&lt;span style=&quot;font-size: 20px;&quot;&gt;&lt;b&gt;0&lt;/b&gt;&lt;/span&gt;&lt;/font&gt;" style="text;html=1;align=center;verticalAlign=middle;resizable=0;points=[];autosize=1;strokeColor=none;fillColor=none;" parent="1" vertex="1">
          <mxGeometry x="1200" y="69" width="30" height="40" as="geometry" />
        </mxCell>
        <mxCell id="_8dhKZwRJzOUhoa2UiC7-82" value="" style="endArrow=none;html=1;rounded=0;entryX=1;entryY=1;entryDx=0;entryDy=0;exitX=0;exitY=0;exitDx=0;exitDy=0;fontSize=11;strokeWidth=2;" parent="1" source="_8dhKZwRJzOUhoa2UiC7-76" target="_8dhKZwRJzOUhoa2UiC7-72" edge="1">
          <mxGeometry width="50" height="50" relative="1" as="geometry">
            <mxPoint x="1350" y="569" as="sourcePoint" />
            <mxPoint x="1270" y="169" as="targetPoint" />
          </mxGeometry>
        </mxCell>
        <mxCell id="_8dhKZwRJzOUhoa2UiC7-83" value="" style="endArrow=none;html=1;rounded=0;entryX=0.5;entryY=1;entryDx=0;entryDy=0;exitX=0.5;exitY=0;exitDx=0;exitDy=0;fontSize=11;strokeWidth=2;" parent="1" source="_8dhKZwRJzOUhoa2UiC7-65" target="_8dhKZwRJzOUhoa2UiC7-72" edge="1">
          <mxGeometry width="50" height="50" relative="1" as="geometry">
            <mxPoint x="920" y="449" as="sourcePoint" />
            <mxPoint x="920" y="409" as="targetPoint" />
          </mxGeometry>
        </mxCell>
        <mxCell id="_8dhKZwRJzOUhoa2UiC7-84" value="" style="endArrow=none;html=1;rounded=0;entryX=0.5;entryY=1;entryDx=0;entryDy=0;fontSize=11;strokeWidth=2;exitX=0.5;exitY=0;exitDx=0;exitDy=0;" parent="1" source="_8dhKZwRJzOUhoa2UiC7-61" target="_8dhKZwRJzOUhoa2UiC7-65" edge="1">
          <mxGeometry width="50" height="50" relative="1" as="geometry">
            <mxPoint x="1140" y="199" as="sourcePoint" />
            <mxPoint x="1150" y="89" as="targetPoint" />
          </mxGeometry>
        </mxCell>
        <mxCell id="_8dhKZwRJzOUhoa2UiC7-85" value="" style="endArrow=none;html=1;rounded=0;entryX=1;entryY=0;entryDx=0;entryDy=0;fontSize=11;strokeWidth=2;exitX=0;exitY=1;exitDx=0;exitDy=0;" parent="1" source="_8dhKZwRJzOUhoa2UiC7-65" target="_8dhKZwRJzOUhoa2UiC7-69" edge="1">
          <mxGeometry width="50" height="50" relative="1" as="geometry">
            <mxPoint x="1150" y="209" as="sourcePoint" />
            <mxPoint x="1150" y="169" as="targetPoint" />
          </mxGeometry>
        </mxCell>
        <mxCell id="_8dhKZwRJzOUhoa2UiC7-86" value="" style="endArrow=none;html=1;rounded=0;entryX=0.5;entryY=0;entryDx=0;entryDy=0;fontSize=11;strokeWidth=2;exitX=0.5;exitY=1;exitDx=0;exitDy=0;" parent="1" source="_8dhKZwRJzOUhoa2UiC7-61" target="_8dhKZwRJzOUhoa2UiC7-52" edge="1">
          <mxGeometry width="50" height="50" relative="1" as="geometry">
            <mxPoint x="1136" y="163" as="sourcePoint" />
            <mxPoint x="1051" y="218" as="targetPoint" />
          </mxGeometry>
        </mxCell>
        <mxCell id="_8dhKZwRJzOUhoa2UiC7-87" value="" style="endArrow=none;html=1;rounded=0;entryX=1;entryY=0;entryDx=0;entryDy=0;fontSize=11;strokeWidth=2;exitX=0;exitY=1;exitDx=0;exitDy=0;" parent="1" source="_8dhKZwRJzOUhoa2UiC7-52" target="_8dhKZwRJzOUhoa2UiC7-51" edge="1">
          <mxGeometry width="50" height="50" relative="1" as="geometry">
            <mxPoint x="1150" y="269" as="sourcePoint" />
            <mxPoint x="1150" y="309" as="targetPoint" />
          </mxGeometry>
        </mxCell>
        <mxCell id="_8dhKZwRJzOUhoa2UiC7-88" value="" style="endArrow=none;html=1;rounded=0;entryX=0.5;entryY=0;entryDx=0;entryDy=0;fontSize=11;strokeWidth=2;exitX=0.5;exitY=1;exitDx=0;exitDy=0;" parent="1" source="_8dhKZwRJzOUhoa2UiC7-52" target="_8dhKZwRJzOUhoa2UiC7-55" edge="1">
          <mxGeometry width="50" height="50" relative="1" as="geometry">
            <mxPoint x="1136" y="337" as="sourcePoint" />
            <mxPoint x="1051" y="398" as="targetPoint" />
          </mxGeometry>
        </mxCell>
        <mxCell id="_8dhKZwRJzOUhoa2UiC7-89" value="" style="endArrow=none;html=1;rounded=0;entryX=0;entryY=0;entryDx=0;entryDy=0;fontSize=11;strokeWidth=2;exitX=1;exitY=1;exitDx=0;exitDy=0;" parent="1" source="_8dhKZwRJzOUhoa2UiC7-52" target="_8dhKZwRJzOUhoa2UiC7-58" edge="1">
          <mxGeometry width="50" height="50" relative="1" as="geometry">
            <mxPoint x="1150" y="349" as="sourcePoint" />
            <mxPoint x="1150" y="389" as="targetPoint" />
          </mxGeometry>
        </mxCell>
        <mxCell id="_8dhKZwRJzOUhoa2UiC7-91" value="&lt;font size=&quot;1&quot; face=&quot;Times New Roman&quot;&gt;&lt;span style=&quot;font-size: 20px;&quot;&gt;&lt;b&gt;0&lt;/b&gt;&lt;/span&gt;&lt;/font&gt;" style="text;html=1;align=center;verticalAlign=middle;resizable=0;points=[];autosize=1;strokeColor=none;fillColor=none;" parent="1" vertex="1">
          <mxGeometry x="1260" y="159" width="30" height="40" as="geometry" />
        </mxCell>
        <mxCell id="_8dhKZwRJzOUhoa2UiC7-92" value="&lt;font size=&quot;1&quot; face=&quot;Times New Roman&quot;&gt;&lt;span style=&quot;font-size: 20px;&quot;&gt;&lt;b&gt;0&lt;/b&gt;&lt;/span&gt;&lt;/font&gt;" style="text;html=1;align=center;verticalAlign=middle;resizable=0;points=[];autosize=1;strokeColor=none;fillColor=none;" parent="1" vertex="1">
          <mxGeometry x="1140" y="159" width="30" height="40" as="geometry" />
        </mxCell>
        <mxCell id="_8dhKZwRJzOUhoa2UiC7-93" value="&lt;font size=&quot;1&quot; face=&quot;Times New Roman&quot;&gt;&lt;span style=&quot;font-size: 20px;&quot;&gt;&lt;b&gt;0&lt;/b&gt;&lt;/span&gt;&lt;/font&gt;" style="text;html=1;align=center;verticalAlign=middle;resizable=0;points=[];autosize=1;strokeColor=none;fillColor=none;" parent="1" vertex="1">
          <mxGeometry x="1060" y="149" width="30" height="40" as="geometry" />
        </mxCell>
        <mxCell id="_8dhKZwRJzOUhoa2UiC7-94" value="&lt;font size=&quot;1&quot; face=&quot;Times New Roman&quot;&gt;&lt;span style=&quot;font-size: 20px;&quot;&gt;&lt;b&gt;1&lt;/b&gt;&lt;/span&gt;&lt;/font&gt;" style="text;html=1;align=center;verticalAlign=middle;resizable=0;points=[];autosize=1;strokeColor=none;fillColor=none;" parent="1" vertex="1">
          <mxGeometry x="1140" y="79" width="30" height="40" as="geometry" />
        </mxCell>
        <mxCell id="_8dhKZwRJzOUhoa2UiC7-95" value="&lt;font size=&quot;1&quot; face=&quot;Times New Roman&quot;&gt;&lt;span style=&quot;font-size: 20px;&quot;&gt;&lt;b&gt;2&lt;/b&gt;&lt;/span&gt;&lt;/font&gt;" style="text;html=1;align=center;verticalAlign=middle;resizable=0;points=[];autosize=1;strokeColor=none;fillColor=none;" parent="1" vertex="1">
          <mxGeometry x="1140" y="259" width="30" height="40" as="geometry" />
        </mxCell>
        <mxCell id="_8dhKZwRJzOUhoa2UiC7-96" value="&lt;font size=&quot;1&quot; face=&quot;Times New Roman&quot;&gt;&lt;span style=&quot;font-size: 20px;&quot;&gt;&lt;b&gt;2&lt;/b&gt;&lt;/span&gt;&lt;/font&gt;" style="text;html=1;align=center;verticalAlign=middle;resizable=0;points=[];autosize=1;strokeColor=none;fillColor=none;" parent="1" vertex="1">
          <mxGeometry x="1060" y="329" width="30" height="40" as="geometry" />
        </mxCell>
        <mxCell id="_8dhKZwRJzOUhoa2UiC7-97" value="&lt;font size=&quot;1&quot; face=&quot;Times New Roman&quot;&gt;&lt;span style=&quot;font-size: 20px;&quot;&gt;&lt;b&gt;2&lt;/b&gt;&lt;/span&gt;&lt;/font&gt;" style="text;html=1;align=center;verticalAlign=middle;resizable=0;points=[];autosize=1;strokeColor=none;fillColor=none;" parent="1" vertex="1">
          <mxGeometry x="1190" y="329" width="30" height="40" as="geometry" />
        </mxCell>
        <mxCell id="_8dhKZwRJzOUhoa2UiC7-98" value="&lt;font size=&quot;1&quot; face=&quot;Times New Roman&quot;&gt;&lt;span style=&quot;font-size: 20px;&quot;&gt;&lt;b&gt;2&lt;/b&gt;&lt;/span&gt;&lt;/font&gt;" style="text;html=1;align=center;verticalAlign=middle;resizable=0;points=[];autosize=1;strokeColor=none;fillColor=none;" parent="1" vertex="1">
          <mxGeometry x="1140" y="339" width="30" height="40" as="geometry" />
        </mxCell>
        <mxCell id="_8dhKZwRJzOUhoa2UiC7-99" value="&lt;font size=&quot;1&quot; face=&quot;Times New Roman&quot;&gt;&lt;span style=&quot;font-size: 20px;&quot;&gt;&lt;b&gt;1&lt;/b&gt;&lt;/span&gt;&lt;/font&gt;" style="text;html=1;align=center;verticalAlign=middle;resizable=0;points=[];autosize=1;strokeColor=none;fillColor=none;" parent="1" vertex="1">
          <mxGeometry x="1260" y="439" width="30" height="40" as="geometry" />
        </mxCell>
        <mxCell id="_8dhKZwRJzOUhoa2UiC7-100" value="&lt;font size=&quot;1&quot; face=&quot;Times New Roman&quot;&gt;&lt;span style=&quot;font-size: 20px;&quot;&gt;&lt;b&gt;2&lt;/b&gt;&lt;/span&gt;&lt;/font&gt;" style="text;html=1;align=center;verticalAlign=middle;resizable=0;points=[];autosize=1;strokeColor=none;fillColor=none;" parent="1" vertex="1">
          <mxGeometry x="1260" y="519" width="30" height="40" as="geometry" />
        </mxCell>
        <mxCell id="_8dhKZwRJzOUhoa2UiC7-101" value="" style="ellipse;whiteSpace=wrap;html=1;aspect=fixed;strokeWidth=2;fontSize=15;" parent="1" vertex="1">
          <mxGeometry x="1350" y="379" width="60" height="60" as="geometry" />
        </mxCell>
        <mxCell id="_8dhKZwRJzOUhoa2UiC7-102" value="&lt;font face=&quot;Helvetica&quot; style=&quot;font-size: 24px;&quot;&gt;3&lt;/font&gt;" style="ellipse;whiteSpace=wrap;html=1;aspect=fixed;strokeWidth=2;" parent="1" vertex="1">
          <mxGeometry x="1480" y="299" width="40" height="40" as="geometry" />
        </mxCell>
        <mxCell id="_8dhKZwRJzOUhoa2UiC7-103" value="&lt;span style=&quot;font-size: 24px;&quot;&gt;&lt;span style=&quot;font-style: italic;&quot;&gt;B&lt;/span&gt;&lt;span style=&quot;&quot;&gt;&lt;sub style=&quot;&quot;&gt;0&lt;/sub&gt;&lt;/span&gt;&lt;/span&gt;" style="text;html=1;align=center;verticalAlign=middle;resizable=0;points=[];autosize=1;strokeColor=none;fillColor=none;strokeWidth=1;fontFamily=Times New Roman;fontStyle=0" parent="1" vertex="1">
          <mxGeometry x="1355" y="384" width="50" height="50" as="geometry" />
        </mxCell>
        <mxCell id="_8dhKZwRJzOUhoa2UiC7-104" value="&lt;var style=&quot;font-size: 24px;&quot; class=&quot;vector&quot;&gt;&lt;span style=&quot;font-size: 24px;&quot;&gt;&lt;font style=&quot;font-size: 24px;&quot;&gt;⃗&lt;/font&gt;&lt;/span&gt;&lt;/var&gt;" style="text;html=1;align=center;verticalAlign=middle;resizable=0;points=[];autosize=1;strokeColor=none;fillColor=none;fontFamily=Times New Roman;fontSize=24;" parent="1" vertex="1">
          <mxGeometry x="1370" y="379" width="20" height="40" as="geometry" />
        </mxCell>
        <mxCell id="_8dhKZwRJzOUhoa2UiC7-105" value="" style="ellipse;whiteSpace=wrap;html=1;aspect=fixed;strokeWidth=2;fontSize=15;" parent="1" vertex="1">
          <mxGeometry x="1470" y="379" width="60" height="60" as="geometry" />
        </mxCell>
        <mxCell id="_8dhKZwRJzOUhoa2UiC7-106" value="&lt;span style=&quot;font-size: 24px;&quot;&gt;&lt;span style=&quot;font-style: italic;&quot;&gt;B&lt;/span&gt;&lt;span style=&quot;&quot;&gt;&lt;sub style=&quot;&quot;&gt;1&lt;/sub&gt;&lt;/span&gt;&lt;/span&gt;" style="text;html=1;align=center;verticalAlign=middle;resizable=0;points=[];autosize=1;strokeColor=none;fillColor=none;strokeWidth=1;fontFamily=Times New Roman;fontStyle=0" parent="1" vertex="1">
          <mxGeometry x="1475" y="384" width="50" height="50" as="geometry" />
        </mxCell>
        <mxCell id="_8dhKZwRJzOUhoa2UiC7-107" value="&lt;var style=&quot;font-size: 24px;&quot; class=&quot;vector&quot;&gt;&lt;span style=&quot;font-size: 24px;&quot;&gt;&lt;font style=&quot;font-size: 24px;&quot;&gt;⃗&lt;/font&gt;&lt;/span&gt;&lt;/var&gt;" style="text;html=1;align=center;verticalAlign=middle;resizable=0;points=[];autosize=1;strokeColor=none;fillColor=none;fontFamily=Times New Roman;fontSize=24;" parent="1" vertex="1">
          <mxGeometry x="1490" y="379" width="20" height="40" as="geometry" />
        </mxCell>
        <mxCell id="_8dhKZwRJzOUhoa2UiC7-108" value="" style="ellipse;whiteSpace=wrap;html=1;aspect=fixed;strokeWidth=2;fontSize=15;" parent="1" vertex="1">
          <mxGeometry x="1590" y="379" width="60" height="60" as="geometry" />
        </mxCell>
        <mxCell id="_8dhKZwRJzOUhoa2UiC7-109" value="&lt;span style=&quot;font-size: 24px;&quot;&gt;&lt;span style=&quot;font-style: italic;&quot;&gt;B&lt;/span&gt;&lt;span style=&quot;&quot;&gt;&lt;sub style=&quot;&quot;&gt;3&lt;/sub&gt;&lt;/span&gt;&lt;/span&gt;" style="text;html=1;align=center;verticalAlign=middle;resizable=0;points=[];autosize=1;strokeColor=none;fillColor=none;strokeWidth=1;fontFamily=Times New Roman;fontStyle=0" parent="1" vertex="1">
          <mxGeometry x="1595" y="384" width="50" height="50" as="geometry" />
        </mxCell>
        <mxCell id="_8dhKZwRJzOUhoa2UiC7-110" value="&lt;var style=&quot;font-size: 24px;&quot; class=&quot;vector&quot;&gt;&lt;span style=&quot;font-size: 24px;&quot;&gt;&lt;font style=&quot;font-size: 24px;&quot;&gt;⃗&lt;/font&gt;&lt;/span&gt;&lt;/var&gt;" style="text;html=1;align=center;verticalAlign=middle;resizable=0;points=[];autosize=1;strokeColor=none;fillColor=none;fontFamily=Times New Roman;fontSize=24;" parent="1" vertex="1">
          <mxGeometry x="1610" y="379" width="20" height="40" as="geometry" />
        </mxCell>
        <mxCell id="_8dhKZwRJzOUhoa2UiC7-111" value="" style="ellipse;whiteSpace=wrap;html=1;aspect=fixed;strokeWidth=2;fontSize=15;" parent="1" vertex="1">
          <mxGeometry x="1470" y="199" width="60" height="60" as="geometry" />
        </mxCell>
        <mxCell id="_8dhKZwRJzOUhoa2UiC7-112" value="&lt;span style=&quot;font-size: 24px;&quot;&gt;&lt;span style=&quot;font-style: italic;&quot;&gt;B&lt;/span&gt;&lt;span style=&quot;&quot;&gt;&lt;sub style=&quot;&quot;&gt;4&lt;/sub&gt;&lt;/span&gt;&lt;/span&gt;" style="text;html=1;align=center;verticalAlign=middle;resizable=0;points=[];autosize=1;strokeColor=none;fillColor=none;strokeWidth=1;fontFamily=Times New Roman;fontStyle=0" parent="1" vertex="1">
          <mxGeometry x="1475" y="204" width="50" height="50" as="geometry" />
        </mxCell>
        <mxCell id="_8dhKZwRJzOUhoa2UiC7-113" value="&lt;var style=&quot;font-size: 24px;&quot; class=&quot;vector&quot;&gt;&lt;span style=&quot;font-size: 24px;&quot;&gt;&lt;font style=&quot;font-size: 24px;&quot;&gt;⃗&lt;/font&gt;&lt;/span&gt;&lt;/var&gt;" style="text;html=1;align=center;verticalAlign=middle;resizable=0;points=[];autosize=1;strokeColor=none;fillColor=none;fontFamily=Times New Roman;fontSize=24;" parent="1" vertex="1">
          <mxGeometry x="1490" y="199" width="20" height="40" as="geometry" />
        </mxCell>
        <mxCell id="_8dhKZwRJzOUhoa2UiC7-114" value="&lt;font face=&quot;Helvetica&quot; style=&quot;font-size: 24px;&quot;&gt;6&lt;/font&gt;" style="ellipse;whiteSpace=wrap;html=1;aspect=fixed;strokeWidth=2;" parent="1" vertex="1">
          <mxGeometry x="1600" y="479" width="40" height="40" as="geometry" />
        </mxCell>
        <mxCell id="_8dhKZwRJzOUhoa2UiC7-115" value="&lt;font face=&quot;Helvetica&quot; style=&quot;font-size: 24px;&quot;&gt;1&lt;/font&gt;" style="ellipse;whiteSpace=wrap;html=1;aspect=fixed;strokeWidth=2;" parent="1" vertex="1">
          <mxGeometry x="1480" y="119" width="40" height="40" as="geometry" />
        </mxCell>
        <mxCell id="_8dhKZwRJzOUhoa2UiC7-116" value="" style="ellipse;whiteSpace=wrap;html=1;aspect=fixed;strokeWidth=2;fontSize=15;" parent="1" vertex="1">
          <mxGeometry x="1590" y="559" width="60" height="60" as="geometry" />
        </mxCell>
        <mxCell id="_8dhKZwRJzOUhoa2UiC7-117" value="&lt;span style=&quot;font-size: 24px;&quot;&gt;&lt;span style=&quot;font-style: italic;&quot;&gt;B&lt;/span&gt;&lt;span style=&quot;&quot;&gt;&lt;sub style=&quot;&quot;&gt;2&lt;/sub&gt;&lt;/span&gt;&lt;/span&gt;" style="text;html=1;align=center;verticalAlign=middle;resizable=0;points=[];autosize=1;strokeColor=none;fillColor=none;strokeWidth=1;fontFamily=Times New Roman;fontStyle=0" parent="1" vertex="1">
          <mxGeometry x="1595" y="564" width="50" height="50" as="geometry" />
        </mxCell>
        <mxCell id="_8dhKZwRJzOUhoa2UiC7-118" value="&lt;var style=&quot;font-size: 24px;&quot; class=&quot;vector&quot;&gt;&lt;span style=&quot;font-size: 24px;&quot;&gt;&lt;font style=&quot;font-size: 24px;&quot;&gt;⃗&lt;/font&gt;&lt;/span&gt;&lt;/var&gt;" style="text;html=1;align=center;verticalAlign=middle;resizable=0;points=[];autosize=1;strokeColor=none;fillColor=none;fontFamily=Times New Roman;fontSize=24;" parent="1" vertex="1">
          <mxGeometry x="1610" y="559" width="20" height="40" as="geometry" />
        </mxCell>
        <mxCell id="_8dhKZwRJzOUhoa2UiC7-119" value="" style="ellipse;whiteSpace=wrap;html=1;aspect=fixed;strokeWidth=2;fontSize=15;" parent="1" vertex="1">
          <mxGeometry x="1350" y="199" width="60" height="60" as="geometry" />
        </mxCell>
        <mxCell id="_8dhKZwRJzOUhoa2UiC7-120" value="&lt;span style=&quot;font-size: 24px;&quot;&gt;&lt;span style=&quot;font-style: italic;&quot;&gt;B&lt;/span&gt;&lt;span style=&quot;&quot;&gt;&lt;sub style=&quot;&quot;&gt;5&lt;/sub&gt;&lt;/span&gt;&lt;/span&gt;" style="text;html=1;align=center;verticalAlign=middle;resizable=0;points=[];autosize=1;strokeColor=none;fillColor=none;strokeWidth=1;fontFamily=Times New Roman;fontStyle=0" parent="1" vertex="1">
          <mxGeometry x="1355" y="204" width="50" height="50" as="geometry" />
        </mxCell>
        <mxCell id="_8dhKZwRJzOUhoa2UiC7-121" value="&lt;var style=&quot;font-size: 24px;&quot; class=&quot;vector&quot;&gt;&lt;span style=&quot;font-size: 24px;&quot;&gt;&lt;font style=&quot;font-size: 24px;&quot;&gt;⃗&lt;/font&gt;&lt;/span&gt;&lt;/var&gt;" style="text;html=1;align=center;verticalAlign=middle;resizable=0;points=[];autosize=1;strokeColor=none;fillColor=none;fontFamily=Times New Roman;fontSize=24;" parent="1" vertex="1">
          <mxGeometry x="1370" y="199" width="20" height="40" as="geometry" />
        </mxCell>
        <mxCell id="_8dhKZwRJzOUhoa2UiC7-122" value="" style="ellipse;whiteSpace=wrap;html=1;aspect=fixed;strokeWidth=2;fontSize=15;" parent="1" vertex="1">
          <mxGeometry x="1470" y="19" width="60" height="60" as="geometry" />
        </mxCell>
        <mxCell id="_8dhKZwRJzOUhoa2UiC7-123" value="&lt;span style=&quot;font-size: 24px;&quot;&gt;&lt;span style=&quot;font-style: italic;&quot;&gt;B&lt;/span&gt;&lt;span style=&quot;&quot;&gt;&lt;sub style=&quot;&quot;&gt;6&lt;/sub&gt;&lt;/span&gt;&lt;/span&gt;" style="text;html=1;align=center;verticalAlign=middle;resizable=0;points=[];autosize=1;strokeColor=none;fillColor=none;strokeWidth=1;fontFamily=Times New Roman;fontStyle=0" parent="1" vertex="1">
          <mxGeometry x="1475" y="24" width="50" height="50" as="geometry" />
        </mxCell>
        <mxCell id="_8dhKZwRJzOUhoa2UiC7-124" value="&lt;var style=&quot;font-size: 24px;&quot; class=&quot;vector&quot;&gt;&lt;span style=&quot;font-size: 24px;&quot;&gt;&lt;font style=&quot;font-size: 24px;&quot;&gt;⃗&lt;/font&gt;&lt;/span&gt;&lt;/var&gt;" style="text;html=1;align=center;verticalAlign=middle;resizable=0;points=[];autosize=1;strokeColor=none;fillColor=none;fontFamily=Times New Roman;fontSize=24;" parent="1" vertex="1">
          <mxGeometry x="1490" y="19" width="20" height="40" as="geometry" />
        </mxCell>
        <mxCell id="_8dhKZwRJzOUhoa2UiC7-125" value="" style="endArrow=none;html=1;rounded=0;entryX=0.5;entryY=0;entryDx=0;entryDy=0;exitX=0.5;exitY=1;exitDx=0;exitDy=0;fontSize=11;strokeWidth=2;" parent="1" source="_8dhKZwRJzOUhoa2UiC7-114" target="_8dhKZwRJzOUhoa2UiC7-116" edge="1">
          <mxGeometry width="50" height="50" relative="1" as="geometry">
            <mxPoint x="1280" y="589" as="sourcePoint" />
            <mxPoint x="1280" y="629" as="targetPoint" />
          </mxGeometry>
        </mxCell>
        <mxCell id="_8dhKZwRJzOUhoa2UiC7-126" value="&lt;font face=&quot;Helvetica&quot; style=&quot;font-size: 24px;&quot;&gt;0&lt;/font&gt;" style="ellipse;whiteSpace=wrap;html=1;aspect=fixed;strokeWidth=2;" parent="1" vertex="1">
          <mxGeometry x="1600" y="119" width="40" height="40" as="geometry" />
        </mxCell>
        <mxCell id="_8dhKZwRJzOUhoa2UiC7-127" value="" style="ellipse;whiteSpace=wrap;html=1;aspect=fixed;strokeWidth=2;fontSize=15;" parent="1" vertex="1">
          <mxGeometry x="1590" y="199" width="60" height="60" as="geometry" />
        </mxCell>
        <mxCell id="_8dhKZwRJzOUhoa2UiC7-128" value="&lt;span style=&quot;font-size: 24px;&quot;&gt;&lt;span style=&quot;font-style: italic;&quot;&gt;B&lt;/span&gt;&lt;span style=&quot;&quot;&gt;&lt;sub style=&quot;&quot;&gt;7&lt;/sub&gt;&lt;/span&gt;&lt;/span&gt;" style="text;html=1;align=center;verticalAlign=middle;resizable=0;points=[];autosize=1;strokeColor=none;fillColor=none;strokeWidth=1;fontFamily=Times New Roman;fontStyle=0" parent="1" vertex="1">
          <mxGeometry x="1595" y="204" width="50" height="50" as="geometry" />
        </mxCell>
        <mxCell id="_8dhKZwRJzOUhoa2UiC7-129" value="&lt;var style=&quot;font-size: 24px;&quot; class=&quot;vector&quot;&gt;&lt;span style=&quot;font-size: 24px;&quot;&gt;&lt;font style=&quot;font-size: 24px;&quot;&gt;⃗&lt;/font&gt;&lt;/span&gt;&lt;/var&gt;" style="text;html=1;align=center;verticalAlign=middle;resizable=0;points=[];autosize=1;strokeColor=none;fillColor=none;fontFamily=Times New Roman;fontSize=24;" parent="1" vertex="1">
          <mxGeometry x="1610" y="199" width="20" height="40" as="geometry" />
        </mxCell>
        <mxCell id="_8dhKZwRJzOUhoa2UiC7-130" value="" style="endArrow=none;html=1;rounded=0;entryX=0.5;entryY=1;entryDx=0;entryDy=0;exitX=0.5;exitY=0;exitDx=0;exitDy=0;fontSize=11;strokeWidth=2;" parent="1" source="_8dhKZwRJzOUhoa2UiC7-127" target="_8dhKZwRJzOUhoa2UiC7-126" edge="1">
          <mxGeometry width="50" height="50" relative="1" as="geometry">
            <mxPoint x="1710" y="489" as="sourcePoint" />
            <mxPoint x="1710" y="449" as="targetPoint" />
          </mxGeometry>
        </mxCell>
        <mxCell id="_8dhKZwRJzOUhoa2UiC7-131" value="&lt;font size=&quot;1&quot; face=&quot;Times New Roman&quot;&gt;&lt;span style=&quot;font-size: 20px;&quot;&gt;&lt;b&gt;0&lt;/b&gt;&lt;/span&gt;&lt;/font&gt;" style="text;html=1;align=center;verticalAlign=middle;resizable=0;points=[];autosize=1;strokeColor=none;fillColor=none;" parent="1" vertex="1">
          <mxGeometry x="1560" y="69" width="30" height="40" as="geometry" />
        </mxCell>
        <mxCell id="_8dhKZwRJzOUhoa2UiC7-132" value="" style="endArrow=none;html=1;rounded=0;entryX=1;entryY=1;entryDx=0;entryDy=0;exitX=0;exitY=0;exitDx=0;exitDy=0;fontSize=11;strokeWidth=2;" parent="1" source="_8dhKZwRJzOUhoa2UiC7-126" target="_8dhKZwRJzOUhoa2UiC7-122" edge="1">
          <mxGeometry width="50" height="50" relative="1" as="geometry">
            <mxPoint x="1710" y="569" as="sourcePoint" />
            <mxPoint x="1630" y="169" as="targetPoint" />
          </mxGeometry>
        </mxCell>
        <mxCell id="_8dhKZwRJzOUhoa2UiC7-135" value="" style="endArrow=none;html=1;rounded=0;entryX=1;entryY=0;entryDx=0;entryDy=0;fontSize=11;strokeWidth=2;exitX=0;exitY=1;exitDx=0;exitDy=0;" parent="1" source="_8dhKZwRJzOUhoa2UiC7-115" target="_8dhKZwRJzOUhoa2UiC7-119" edge="1">
          <mxGeometry width="50" height="50" relative="1" as="geometry">
            <mxPoint x="1510" y="209" as="sourcePoint" />
            <mxPoint x="1510" y="169" as="targetPoint" />
          </mxGeometry>
        </mxCell>
        <mxCell id="_8dhKZwRJzOUhoa2UiC7-137" value="" style="endArrow=none;html=1;rounded=0;entryX=1;entryY=0;entryDx=0;entryDy=0;fontSize=11;strokeWidth=2;exitX=0;exitY=1;exitDx=0;exitDy=0;" parent="1" source="_8dhKZwRJzOUhoa2UiC7-102" target="_8dhKZwRJzOUhoa2UiC7-101" edge="1">
          <mxGeometry width="50" height="50" relative="1" as="geometry">
            <mxPoint x="1510" y="269" as="sourcePoint" />
            <mxPoint x="1510" y="309" as="targetPoint" />
          </mxGeometry>
        </mxCell>
        <mxCell id="_8dhKZwRJzOUhoa2UiC7-138" value="" style="endArrow=none;html=1;rounded=0;entryX=0.5;entryY=0;entryDx=0;entryDy=0;fontSize=11;strokeWidth=2;exitX=0.5;exitY=1;exitDx=0;exitDy=0;" parent="1" source="_8dhKZwRJzOUhoa2UiC7-102" target="_8dhKZwRJzOUhoa2UiC7-105" edge="1">
          <mxGeometry width="50" height="50" relative="1" as="geometry">
            <mxPoint x="1496" y="337" as="sourcePoint" />
            <mxPoint x="1411" y="398" as="targetPoint" />
          </mxGeometry>
        </mxCell>
        <mxCell id="_8dhKZwRJzOUhoa2UiC7-141" value="&lt;font size=&quot;1&quot; face=&quot;Times New Roman&quot;&gt;&lt;span style=&quot;font-size: 20px;&quot;&gt;&lt;b&gt;0&lt;/b&gt;&lt;/span&gt;&lt;/font&gt;" style="text;html=1;align=center;verticalAlign=middle;resizable=0;points=[];autosize=1;strokeColor=none;fillColor=none;" parent="1" vertex="1">
          <mxGeometry x="1620" y="159" width="30" height="40" as="geometry" />
        </mxCell>
        <mxCell id="_8dhKZwRJzOUhoa2UiC7-142" value="&lt;font size=&quot;1&quot; face=&quot;Times New Roman&quot;&gt;&lt;span style=&quot;font-size: 20px;&quot;&gt;&lt;b&gt;0&lt;/b&gt;&lt;/span&gt;&lt;/font&gt;" style="text;html=1;align=center;verticalAlign=middle;resizable=0;points=[];autosize=1;strokeColor=none;fillColor=none;" parent="1" vertex="1">
          <mxGeometry x="1500" y="159" width="30" height="40" as="geometry" />
        </mxCell>
        <mxCell id="_8dhKZwRJzOUhoa2UiC7-143" value="&lt;font size=&quot;1&quot; face=&quot;Times New Roman&quot;&gt;&lt;span style=&quot;font-size: 20px;&quot;&gt;&lt;b&gt;0&lt;/b&gt;&lt;/span&gt;&lt;/font&gt;" style="text;html=1;align=center;verticalAlign=middle;resizable=0;points=[];autosize=1;strokeColor=none;fillColor=none;" parent="1" vertex="1">
          <mxGeometry x="1420" y="149" width="30" height="40" as="geometry" />
        </mxCell>
        <mxCell id="_8dhKZwRJzOUhoa2UiC7-144" value="&lt;font size=&quot;1&quot; face=&quot;Times New Roman&quot;&gt;&lt;span style=&quot;font-size: 20px;&quot;&gt;&lt;b&gt;1&lt;/b&gt;&lt;/span&gt;&lt;/font&gt;" style="text;html=1;align=center;verticalAlign=middle;resizable=0;points=[];autosize=1;strokeColor=none;fillColor=none;" parent="1" vertex="1">
          <mxGeometry x="1500" y="79" width="30" height="40" as="geometry" />
        </mxCell>
        <mxCell id="_8dhKZwRJzOUhoa2UiC7-145" value="&lt;font size=&quot;1&quot; face=&quot;Times New Roman&quot;&gt;&lt;span style=&quot;font-size: 20px;&quot;&gt;&lt;b&gt;2&lt;/b&gt;&lt;/span&gt;&lt;/font&gt;" style="text;html=1;align=center;verticalAlign=middle;resizable=0;points=[];autosize=1;strokeColor=none;fillColor=none;" parent="1" vertex="1">
          <mxGeometry x="1500" y="259" width="30" height="40" as="geometry" />
        </mxCell>
        <mxCell id="_8dhKZwRJzOUhoa2UiC7-146" value="&lt;font size=&quot;1&quot; face=&quot;Times New Roman&quot;&gt;&lt;span style=&quot;font-size: 20px;&quot;&gt;&lt;b&gt;2&lt;/b&gt;&lt;/span&gt;&lt;/font&gt;" style="text;html=1;align=center;verticalAlign=middle;resizable=0;points=[];autosize=1;strokeColor=none;fillColor=none;" parent="1" vertex="1">
          <mxGeometry x="1420" y="329" width="30" height="40" as="geometry" />
        </mxCell>
        <mxCell id="_8dhKZwRJzOUhoa2UiC7-147" value="&lt;font size=&quot;1&quot; face=&quot;Times New Roman&quot;&gt;&lt;span style=&quot;font-size: 20px;&quot;&gt;&lt;b&gt;2&lt;/b&gt;&lt;/span&gt;&lt;/font&gt;" style="text;html=1;align=center;verticalAlign=middle;resizable=0;points=[];autosize=1;strokeColor=none;fillColor=none;" parent="1" vertex="1">
          <mxGeometry x="1550" y="329" width="30" height="40" as="geometry" />
        </mxCell>
        <mxCell id="_8dhKZwRJzOUhoa2UiC7-148" value="&lt;font size=&quot;1&quot; face=&quot;Times New Roman&quot;&gt;&lt;span style=&quot;font-size: 20px;&quot;&gt;&lt;b&gt;2&lt;/b&gt;&lt;/span&gt;&lt;/font&gt;" style="text;html=1;align=center;verticalAlign=middle;resizable=0;points=[];autosize=1;strokeColor=none;fillColor=none;" parent="1" vertex="1">
          <mxGeometry x="1500" y="339" width="30" height="40" as="geometry" />
        </mxCell>
        <mxCell id="_8dhKZwRJzOUhoa2UiC7-149" value="&lt;font size=&quot;1&quot; face=&quot;Times New Roman&quot;&gt;&lt;span style=&quot;font-size: 20px;&quot;&gt;&lt;b&gt;1&lt;/b&gt;&lt;/span&gt;&lt;/font&gt;" style="text;html=1;align=center;verticalAlign=middle;resizable=0;points=[];autosize=1;strokeColor=none;fillColor=none;" parent="1" vertex="1">
          <mxGeometry x="1620" y="439" width="30" height="40" as="geometry" />
        </mxCell>
        <mxCell id="_8dhKZwRJzOUhoa2UiC7-150" value="&lt;font size=&quot;1&quot; face=&quot;Times New Roman&quot;&gt;&lt;span style=&quot;font-size: 20px;&quot;&gt;&lt;b&gt;2&lt;/b&gt;&lt;/span&gt;&lt;/font&gt;" style="text;html=1;align=center;verticalAlign=middle;resizable=0;points=[];autosize=1;strokeColor=none;fillColor=none;" parent="1" vertex="1">
          <mxGeometry x="1620" y="519" width="30" height="40" as="geometry" />
        </mxCell>
        <mxCell id="_8dhKZwRJzOUhoa2UiC7-155" value="" style="endArrow=classic;html=1;rounded=0;strokeWidth=2;strokeColor=#FF3333;entryX=0.5;entryY=1;entryDx=0;entryDy=0;exitX=0.5;exitY=0;exitDx=0;exitDy=0;" parent="1" source="ZnwNd1amS8vzW6LrnCgQ-36" target="ZnwNd1amS8vzW6LrnCgQ-47" edge="1">
          <mxGeometry width="50" height="50" relative="1" as="geometry">
            <mxPoint x="710" y="550" as="sourcePoint" />
            <mxPoint x="750" y="490" as="targetPoint" />
          </mxGeometry>
        </mxCell>
        <mxCell id="_8dhKZwRJzOUhoa2UiC7-156" value="" style="endArrow=none;html=1;rounded=0;entryX=0.5;entryY=0;entryDx=0;entryDy=0;exitX=0.5;exitY=1;exitDx=0;exitDy=0;fontSize=11;strokeWidth=2;" parent="1" source="ZnwNd1amS8vzW6LrnCgQ-26" target="ZnwNd1amS8vzW6LrnCgQ-35" edge="1">
          <mxGeometry width="50" height="50" relative="1" as="geometry">
            <mxPoint x="550" y="530" as="sourcePoint" />
            <mxPoint x="550" y="570" as="targetPoint" />
          </mxGeometry>
        </mxCell>
        <mxCell id="_8dhKZwRJzOUhoa2UiC7-157" value="" style="endArrow=classic;html=1;rounded=0;strokeWidth=2;strokeColor=#FF3333;entryX=0.5;entryY=1;entryDx=0;entryDy=0;exitX=0.5;exitY=0;exitDx=0;exitDy=0;" parent="1" source="_8dhKZwRJzOUhoa2UiC7-15" target="_8dhKZwRJzOUhoa2UiC7-22" edge="1">
          <mxGeometry width="50" height="50" relative="1" as="geometry">
            <mxPoint x="430" y="130" as="sourcePoint" />
            <mxPoint x="430" y="90" as="targetPoint" />
          </mxGeometry>
        </mxCell>
        <mxCell id="_8dhKZwRJzOUhoa2UiC7-158" value="" style="endArrow=classic;html=1;rounded=0;strokeWidth=2;strokeColor=#FF3333;entryX=0.5;entryY=1;entryDx=0;entryDy=0;exitX=0.5;exitY=0;exitDx=0;exitDy=0;" parent="1" source="_8dhKZwRJzOUhoa2UiC7-11" target="_8dhKZwRJzOUhoa2UiC7-15" edge="1">
          <mxGeometry width="50" height="50" relative="1" as="geometry">
            <mxPoint x="790" y="130" as="sourcePoint" />
            <mxPoint x="790" y="90" as="targetPoint" />
          </mxGeometry>
        </mxCell>
        <mxCell id="_8dhKZwRJzOUhoa2UiC7-159" value="" style="endArrow=classic;html=1;rounded=0;strokeWidth=2;strokeColor=#FF3333;entryX=0.5;entryY=1;entryDx=0;entryDy=0;exitX=0.5;exitY=0;exitDx=0;exitDy=0;" parent="1" source="_8dhKZwRJzOUhoa2UiC7-2" target="_8dhKZwRJzOUhoa2UiC7-11" edge="1">
          <mxGeometry width="50" height="50" relative="1" as="geometry">
            <mxPoint x="790" y="210" as="sourcePoint" />
            <mxPoint x="790" y="170" as="targetPoint" />
          </mxGeometry>
        </mxCell>
        <mxCell id="_8dhKZwRJzOUhoa2UiC7-160" value="" style="endArrow=classic;html=1;rounded=0;strokeWidth=2;strokeColor=#FF3333;entryX=0.5;entryY=1;entryDx=0;entryDy=0;exitX=0.5;exitY=0;exitDx=0;exitDy=0;" parent="1" source="_8dhKZwRJzOUhoa2UiC7-64" target="_8dhKZwRJzOUhoa2UiC7-58" edge="1">
          <mxGeometry width="50" height="50" relative="1" as="geometry">
            <mxPoint x="786" y="304" as="sourcePoint" />
            <mxPoint x="786" y="264" as="targetPoint" />
          </mxGeometry>
        </mxCell>
        <mxCell id="_8dhKZwRJzOUhoa2UiC7-161" value="" style="endArrow=classic;html=1;rounded=0;strokeWidth=2;strokeColor=#FF3333;entryX=0.5;entryY=1;entryDx=0;entryDy=0;exitX=0.5;exitY=0;exitDx=0;exitDy=0;" parent="1" source="_8dhKZwRJzOUhoa2UiC7-114" target="_8dhKZwRJzOUhoa2UiC7-108" edge="1">
          <mxGeometry width="50" height="50" relative="1" as="geometry">
            <mxPoint x="1270" y="489" as="sourcePoint" />
            <mxPoint x="1270" y="449" as="targetPoint" />
          </mxGeometry>
        </mxCell>
        <mxCell id="_8dhKZwRJzOUhoa2UiC7-162" value="" style="endArrow=classic;html=1;rounded=0;strokeWidth=2;strokeColor=#FF3333;entryX=1;entryY=1;entryDx=0;entryDy=0;exitX=0;exitY=0;exitDx=0;exitDy=0;" parent="1" source="_8dhKZwRJzOUhoa2UiC7-108" target="_8dhKZwRJzOUhoa2UiC7-102" edge="1">
          <mxGeometry width="50" height="50" relative="1" as="geometry">
            <mxPoint x="1630" y="489" as="sourcePoint" />
            <mxPoint x="1630" y="449" as="targetPoint" />
          </mxGeometry>
        </mxCell>
        <mxCell id="_8dhKZwRJzOUhoa2UiC7-163" value="" style="endArrow=classic;html=1;rounded=0;strokeWidth=2;strokeColor=#FF3333;entryX=0.5;entryY=1;entryDx=0;entryDy=0;exitX=0.5;exitY=0;exitDx=0;exitDy=0;" parent="1" source="_8dhKZwRJzOUhoa2UiC7-102" target="_8dhKZwRJzOUhoa2UiC7-111" edge="1">
          <mxGeometry width="50" height="50" relative="1" as="geometry">
            <mxPoint x="1609" y="398" as="sourcePoint" />
            <mxPoint x="1524" y="343" as="targetPoint" />
          </mxGeometry>
        </mxCell>
        <mxCell id="_8dhKZwRJzOUhoa2UiC7-164" value="" style="endArrow=classic;html=1;rounded=0;strokeWidth=2;strokeColor=#FF3333;entryX=0.5;entryY=1;entryDx=0;entryDy=0;exitX=0.5;exitY=0;exitDx=0;exitDy=0;" parent="1" source="_8dhKZwRJzOUhoa2UiC7-111" target="_8dhKZwRJzOUhoa2UiC7-115" edge="1">
          <mxGeometry width="50" height="50" relative="1" as="geometry">
            <mxPoint x="1510" y="309" as="sourcePoint" />
            <mxPoint x="1510" y="269" as="targetPoint" />
          </mxGeometry>
        </mxCell>
        <mxCell id="_8dhKZwRJzOUhoa2UiC7-165" value="" style="endArrow=classic;html=1;rounded=0;strokeWidth=2;strokeColor=#FF3333;entryX=0.5;entryY=1;entryDx=0;entryDy=0;exitX=0.5;exitY=0;exitDx=0;exitDy=0;" parent="1" source="_8dhKZwRJzOUhoa2UiC7-115" target="_8dhKZwRJzOUhoa2UiC7-122" edge="1">
          <mxGeometry width="50" height="50" relative="1" as="geometry">
            <mxPoint x="1510" y="209" as="sourcePoint" />
            <mxPoint x="1510" y="169" as="targetPoint" />
          </mxGeometry>
        </mxCell>
      </root>
    </mxGraphModel>
  </diagram>
</mxfile>
